<?xml version="1.0" encoding="UTF-8" standalone="no"?>
<svg width="1483px" height="269px" viewBox="0 0 1483 269" version="1.1" xmlns="http://www.w3.org/2000/svg" xmlns:xlink="http://www.w3.org/1999/xlink">
    <!-- Generator: Sketch 42 (36781) - http://www.bohemiancoding.com/sketch -->
    <title>Logo</title>
    <desc>Created with Sketch.</desc>
    <defs>
        <linearGradient x1="95.6011075%" y1="95.5056118%" x2="3.34349696%" y2="3.34015715%" id="linearGradient-1">
            <stop stop-color="#7392F1" offset="0%"></stop>
            <stop stop-color="#88EAFF" offset="100%"></stop>
        </linearGradient>
    </defs>
    <g id="Page-1" stroke="none" stroke-width="1" fill="none" fill-rule="evenodd">
        <g id="Logo" transform="translate(-269.000000, -221.000000)">
            <g transform="translate(266.000000, 221.000000)">
                <path d="M36.3217073,268.397819 L248.416342,268.397819 C259.460008,268.397819 268.412669,259.448584 268.412669,248.388911 L268.412669,20.0089072 C268.412669,8.95829292 259.462939,0 248.416342,0 L19.9963268,0 C8.95266047,0 -2.27373675e-13,8.94923443 -2.27373675e-13,20.0089072 L-2.27373675e-13,102.306933 L36.3217073,102.306933 L90.3129685,156.279156 L64.4224211,182.168271 L36.3217073,154.069112 L36.3217073,268.397819 Z" id="Combined-Shape" fill="url(#linearGradient-1)" transform="translate(134.206334, 134.198909) scale(-1, 1) translate(-134.206334, -134.198909) ">
                </path>
                <path d="M418.5,117.695 C417.599996,116.704995 416.295009,115.647506 414.585,114.5225 C412.874991,113.397494 410.872511,112.340005 408.5775,111.35 C406.282489,110.359995 403.762514,109.550003 401.0175,108.92 C398.272486,108.289997 395.460014,107.975 392.58,107.975 C386.189968,107.975 381.487515,109.144988 378.4725,111.485 C375.457485,113.825012 373.95,117.064979 373.95,121.205 C373.95,123.545012 374.422495,125.457493 375.3675,126.9425 C376.312505,128.427507 377.77499,129.732494 379.755,130.8575 C381.73501,131.982506 384.209985,132.972496 387.18,133.8275 C390.150015,134.682504 393.61498,135.604995 397.575,136.595 C402.435024,137.765006 406.82248,139.069993 410.7375,140.51 C414.65252,141.950007 417.959987,143.70499 420.66,145.775 C423.360014,147.84501 425.452493,150.387485 426.9375,153.4025 C428.422507,156.417515 429.165,160.084978 429.165,164.405 C429.165,169.265024 428.242509,173.449982 426.3975,176.96 C424.552491,180.470018 422.032516,183.327489 418.8375,185.5325 C415.642484,187.737511 411.930021,189.357495 407.7,190.3925 C403.469979,191.427505 398.925024,191.945 394.065,191.945 C386.774964,191.945 379.732534,190.842511 372.9375,188.6375 C366.142466,186.432489 360.000027,183.215021 354.51,178.985 L361.395,166.025 C362.565006,167.195006 364.252489,168.499993 366.4575,169.94 C368.662511,171.380007 371.227485,172.707494 374.1525,173.9225 C377.077515,175.137506 380.249983,176.172496 383.67,177.0275 C387.090017,177.882504 390.644982,178.31 394.335,178.31 C400.27503,178.31 404.864984,177.27501 408.105,175.205 C411.345016,173.13499 412.965,170.07502 412.965,166.025 C412.965,163.594988 412.357506,161.570008 411.1425,159.95 C409.927494,158.329992 408.195011,156.912506 405.945,155.6975 C403.694989,154.482494 400.950016,153.380005 397.71,152.39 C394.469984,151.399995 390.780021,150.365005 386.64,149.285 C381.869976,148.024994 377.707518,146.697507 374.1525,145.3025 C370.597482,143.907493 367.650012,142.22001 365.31,140.24 C362.969988,138.25999 361.192506,135.942513 359.9775,133.2875 C358.762494,130.632487 358.155,127.415019 358.155,123.635 C358.155,118.954977 359.054991,114.792518 360.855,111.1475 C362.655009,107.502482 365.107484,104.442512 368.2125,101.9675 C371.317516,99.4924876 374.984979,97.6250063 379.215,96.365 C383.445021,95.1049937 388.034975,94.475 392.985,94.475 C399.465032,94.475 405.449973,95.5099896 410.94,97.58 C416.430027,99.6500103 421.244979,102.214985 425.385,105.275 L418.5,117.695 Z M472.59,192.35 C467.999977,192.35 463.792519,191.36001 459.9675,189.38 C456.142481,187.39999 452.857514,184.745017 450.1125,181.415 C447.367486,178.084983 445.230008,174.192522 443.7,169.7375 C442.169992,165.282478 441.405,160.580025 441.405,155.63 C441.405,150.589975 442.237492,145.865022 443.9025,141.455 C445.567508,137.044978 447.884985,133.175017 450.855,129.845 C453.825015,126.514983 457.33498,123.905009 461.385,122.015 C465.43502,120.124991 469.844976,119.18 474.615,119.18 C480.015027,119.18 484.874978,120.484987 489.195,123.095 C493.515022,125.705013 496.979987,129.079979 499.59,133.22 L499.59,120.395 L512.685,120.395 L512.685,201.53 C512.685,203.240009 513.022497,204.432497 513.6975,205.1075 C514.372503,205.782503 515.474992,206.209999 517.005,206.39 L517.005,219.08 C515.654993,219.260001 514.282507,219.395 512.8875,219.485 C511.492493,219.575 510.210006,219.62 509.04,219.62 C505.979985,219.62 503.347511,218.58501 501.1425,216.515 C498.937489,214.44499 497.835,211.880015 497.835,208.82 L497.835,177.77 C494.954986,182.630024 491.377521,186.274988 487.1025,188.705 C482.827479,191.135012 477.990027,192.35 472.59,192.35 Z M477.99,179.66 C482.490022,179.66 486.382483,178.377513 489.6675,175.8125 C492.952516,173.247487 495.674989,170.030019 497.835,166.16 L497.835,147.53 C497.384998,145.369989 496.485007,143.345009 495.135,141.455 C493.784993,139.564991 492.187509,137.922507 490.3425,136.5275 C488.497491,135.132493 486.495011,134.007504 484.335,133.1525 C482.174989,132.297496 480.06001,131.87 477.99,131.87 C474.839984,131.87 471.960013,132.544993 469.35,133.895 C466.739987,135.245007 464.490009,137.044989 462.6,139.295 C460.70999,141.545011 459.225005,144.132485 458.145,147.0575 C457.064995,149.982515 456.525,152.974985 456.525,156.035 C456.525,159.275016 457.064995,162.334986 458.145,165.215 C459.225005,168.095014 460.70999,170.592489 462.6,172.7075 C464.490009,174.822511 466.739987,176.509994 469.35,177.77 C471.960013,179.030006 474.839984,179.66 477.99,179.66 Z M555.57,192.35 C548.189963,192.35 542.610019,189.942524 538.83,185.1275 C535.049981,180.312476 533.16,173.135048 533.16,163.595 L533.16,120.395 L548.01,120.395 L548.01,160.625 C548.01,173.315063 552.509955,179.66 561.51,179.66 C565.740021,179.66 569.744981,178.355013 573.525,175.745 C577.305019,173.134987 580.229989,169.355025 582.3,164.405 L582.3,120.395 L597.15,120.395 L597.15,173.45 C597.15,175.160009 597.442497,176.374996 598.0275,177.095 C598.612503,177.815004 599.669992,178.22 601.2,178.31 L601.2,191 C599.669992,191.270001 598.410005,191.45 597.42,191.54 C596.429995,191.63 595.485004,191.675 594.585,191.675 C591.884986,191.675 589.590009,190.932507 587.7,189.4475 C585.80999,187.962493 584.82,186.050012 584.73,183.71 L584.46,176.69 C581.309984,181.820026 577.215025,185.712487 572.175,188.3675 C567.134975,191.022513 561.60003,192.35 555.57,192.35 Z M638.145,192.35 C634.724983,192.35 631.552514,191.787506 628.6275,190.6625 C625.702485,189.537494 623.18251,187.98501 621.0675,186.005 C618.952489,184.02499 617.287506,181.685014 616.0725,178.985 C614.857494,176.284987 614.25,173.360016 614.25,170.21 C614.25,166.879983 614.969993,163.865014 616.41,161.165 C617.850007,158.464987 619.897486,156.12501 622.5525,154.145 C625.207513,152.16499 628.357482,150.635005 632.0025,149.555 C635.647518,148.474995 639.674978,147.935 644.085,147.935 C647.415016,147.935 650.699984,148.227497 653.94,148.8125 C657.180016,149.397503 660.104987,150.184995 662.715,151.175 L662.715,146.315 C662.715,141.094974 661.230015,137.022515 658.26,134.0975 C655.289985,131.172485 651.015028,129.71 645.435,129.71 C641.654981,129.71 637.942518,130.407493 634.2975,131.8025 C630.652482,133.197507 626.895019,135.199987 623.025,137.81 L618.435,128.36 C627.525045,122.239969 636.974951,119.18 646.785,119.18 C656.505048,119.18 664.064973,121.654975 669.465,126.605 C674.865027,131.555025 677.565,138.664954 677.565,147.935 L677.565,173.45 C677.565,176.600016 678.869987,178.22 681.48,178.31 L681.48,191 C680.039993,191.270001 678.802505,191.45 677.7675,191.54 C676.732495,191.63 675.720005,191.675 674.73,191.675 C671.849985,191.675 669.622508,190.955007 668.0475,189.515 C666.472492,188.074993 665.505002,186.230011 665.145,183.98 L664.74,179.525 C661.589984,183.665021 657.697523,186.837489 653.0625,189.0425 C648.427477,191.247511 643.455026,192.35 638.145,192.35 Z M642.195,181.415 C645.795018,181.415 649.192484,180.762507 652.3875,179.4575 C655.582516,178.152493 658.079991,176.330012 659.88,173.99 C661.770009,172.369992 662.715,170.660009 662.715,168.86 L662.715,159.545 C660.194987,158.554995 657.517514,157.790003 654.6825,157.25 C651.847486,156.709997 649.080013,156.44 646.38,156.44 C641.069973,156.44 636.727517,157.587489 633.3525,159.8825 C629.977483,162.177511 628.29,165.214981 628.29,168.995 C628.29,172.505018 629.594987,175.452488 632.205,177.8375 C634.815013,180.222512 638.14498,181.415 642.195,181.415 Z M738.54,133.22 C732.779971,133.400001 727.672522,134.727488 723.2175,137.2025 C718.762477,139.677512 715.590009,143.209977 713.7,147.8 L713.7,191 L698.85,191 L698.85,120.395 L712.62,120.395 L712.62,136.19 C715.050012,131.329976 718.22248,127.437515 722.1375,124.5125 C726.052519,121.587485 730.259977,119.990001 734.76,119.72 L736.9875,119.72 C737.572503,119.72 738.089997,119.765 738.54,119.855 L738.54,133.22 Z M781.155,192.35 C775.664972,192.35 770.670022,191.38251 766.17,189.4475 C761.669977,187.51249 757.822516,184.880017 754.6275,181.55 C751.432484,178.219983 748.957508,174.350022 747.2025,169.94 C745.447491,165.529978 744.57,160.850025 744.57,155.9 C744.57,150.949975 745.447491,146.247522 747.2025,141.7925 C748.957508,137.337478 751.432484,133.422517 754.6275,130.0475 C757.822516,126.672483 761.669977,124.01751 766.17,122.0825 C770.670022,120.14749 775.709972,119.18 781.29,119.18 C786.780027,119.18 791.752477,120.16999 796.2075,122.15 C800.662522,124.13001 804.464984,126.762484 807.615,130.0475 C810.765015,133.332516 813.172491,137.157478 814.8375,141.5225 C816.502508,145.887522 817.335,150.454976 817.335,155.225 C817.335,156.305005 817.29,157.317495 817.2,158.2625 C817.109999,159.207505 817.02,159.994997 816.93,160.625 L760.365,160.625 C760.635001,163.775016 761.377494,166.609987 762.5925,169.13 C763.807506,171.650013 765.38249,173.832491 767.3175,175.6775 C769.252509,177.522509 771.457487,178.939995 773.9325,179.93 C776.407512,180.920005 778.994986,181.415 781.695,181.415 C783.67501,181.415 785.63249,181.167502 787.5675,180.6725 C789.502509,180.177498 791.279992,179.457505 792.9,178.5125 C794.520008,177.567495 795.959993,176.420007 797.22,175.07 C798.480006,173.719993 799.469996,172.235008 800.19,170.615 L812.88,174.26 C810.449987,179.570027 806.422528,183.912483 800.7975,187.2875 C795.172471,190.662517 788.625037,192.35 781.155,192.35 Z M802.62,150.365 C802.349998,147.394985 801.607506,144.650013 800.3925,142.13 C799.177494,139.609987 797.625009,137.472509 795.735,135.7175 C793.84499,133.962491 791.640012,132.590005 789.12,131.6 C786.599987,130.609995 783.945014,130.115 781.155,130.115 C778.364986,130.115 775.732512,130.609995 773.2575,131.6 C770.782487,132.590005 768.600009,133.962491 766.71,135.7175 C764.81999,137.472509 763.290005,139.609987 762.12,142.13 C760.949994,144.650013 760.230001,147.394985 759.96,150.365 L802.62,150.365 Z M911.204999,191.675 C904.364965,191.675 898.132528,190.302514 892.507499,187.5575 C886.882471,184.812486 882.04502,181.167523 877.994999,176.6225 C873.944979,172.077477 870.81751,166.880029 868.612499,161.03 C866.407488,155.179971 865.304999,149.195031 865.304999,143.075 C865.304999,136.684968 866.474988,130.565029 868.814999,124.715 C871.155011,118.864971 874.372479,113.690022 878.467499,109.19 C882.56252,104.689977 887.422471,101.112513 893.047499,98.4575 C898.672528,95.8024867 904.814966,94.475 911.474999,94.475 C918.315034,94.475 924.547471,95.8924858 930.172499,98.7275 C935.797528,101.562514 940.612479,105.274977 944.617499,109.865 C948.622519,114.455023 951.727488,119.652471 953.932499,125.4575 C956.13751,131.262529 957.239999,137.17997 957.239999,143.21 C957.239999,149.600032 956.092511,155.719971 953.797499,161.57 C951.502488,167.420029 948.28502,172.572478 944.144999,177.0275 C940.004979,181.482522 935.122528,185.037487 929.497499,187.6925 C923.872471,190.347513 917.775032,191.675 911.204999,191.675 Z M880.694999,143.075 C880.694999,147.575022 881.414992,151.939979 882.854999,156.17 C884.295007,160.400021 886.342486,164.134984 888.997499,167.375 C891.652513,170.615016 894.869981,173.20249 898.649999,175.1375 C902.430018,177.07251 906.659976,178.04 911.339999,178.04 C916.200024,178.04 920.497481,177.02751 924.232499,175.0025 C927.967518,172.97749 931.139986,170.300017 933.749999,166.97 C936.360013,163.639983 938.339993,159.905021 939.689999,155.765 C941.040006,151.624979 941.714999,147.395022 941.714999,143.075 C941.714999,138.484977 940.995007,134.097521 939.554999,129.9125 C938.114992,125.727479 936.067513,122.037516 933.412499,118.8425 C930.757486,115.647484 927.562518,113.08251 923.827499,111.1475 C920.092481,109.21249 915.930022,108.245 911.339999,108.245 C906.479975,108.245 902.160018,109.25749 898.379999,111.2825 C894.599981,113.30751 891.405013,115.939984 888.794999,119.18 C886.184986,122.420016 884.182506,126.132479 882.787499,130.3175 C881.392492,134.502521 880.694999,138.754978 880.694999,143.075 Z M1037.655,191 L1022.805,191 L1022.805,151.445 C1022.805,144.784967 1021.74751,139.947515 1019.6325,136.9325 C1017.51749,133.917485 1014.39002,132.41 1010.25,132.41 C1008.08999,132.41 1005.93001,132.814996 1003.77,133.625 C1001.60999,134.435004 999.585009,135.582493 997.694999,137.0675 C995.80499,138.552507 994.117507,140.30749 992.632499,142.3325 C991.147492,144.35751 990.000003,146.584988 989.189999,149.015 L989.189999,191 L974.339999,191 L974.339999,120.395 L987.839999,120.395 L987.839999,134.57 C990.540013,129.799976 994.454974,126.042514 999.584999,123.2975 C1004.71503,120.552486 1010.38497,119.18 1016.595,119.18 C1020.82502,119.18 1024.28999,119.944992 1026.99,121.475 C1029.69001,123.005008 1031.82749,125.097487 1033.4025,127.7525 C1034.97751,130.407513 1036.08,133.467483 1036.71,136.9325 C1037.34,140.397517 1037.655,144.064981 1037.655,147.935 L1037.655,191 Z M1090.26,192.35 C1084.76997,192.35 1079.77502,191.38251 1075.275,189.4475 C1070.77498,187.51249 1066.92752,184.880017 1063.7325,181.55 C1060.53748,178.219983 1058.06251,174.350022 1056.3075,169.94 C1054.55249,165.529978 1053.675,160.850025 1053.675,155.9 C1053.675,150.949975 1054.55249,146.247522 1056.3075,141.7925 C1058.06251,137.337478 1060.53748,133.422517 1063.7325,130.0475 C1066.92752,126.672483 1070.77498,124.01751 1075.275,122.0825 C1079.77502,120.14749 1084.81497,119.18 1090.395,119.18 C1095.88503,119.18 1100.85748,120.16999 1105.3125,122.15 C1109.76752,124.13001 1113.56998,126.762484 1116.72,130.0475 C1119.87002,133.332516 1122.27749,137.157478 1123.9425,141.5225 C1125.60751,145.887522 1126.44,150.454976 1126.44,155.225 C1126.44,156.305005 1126.395,157.317495 1126.305,158.2625 C1126.215,159.207505 1126.125,159.994997 1126.035,160.625 L1069.47,160.625 C1069.74,163.775016 1070.48249,166.609987 1071.6975,169.13 C1072.91251,171.650013 1074.48749,173.832491 1076.4225,175.6775 C1078.35751,177.522509 1080.56249,178.939995 1083.0375,179.93 C1085.51251,180.920005 1088.09999,181.415 1090.8,181.415 C1092.78001,181.415 1094.73749,181.167502 1096.6725,180.6725 C1098.60751,180.177498 1100.38499,179.457505 1102.005,178.5125 C1103.62501,177.567495 1105.06499,176.420007 1106.325,175.07 C1107.58501,173.719993 1108.575,172.235008 1109.295,170.615 L1121.985,174.26 C1119.55499,179.570027 1115.52753,183.912483 1109.9025,187.2875 C1104.27747,190.662517 1097.73004,192.35 1090.26,192.35 Z M1111.725,150.365 C1111.455,147.394985 1110.71251,144.650013 1109.4975,142.13 C1108.28249,139.609987 1106.73001,137.472509 1104.84,135.7175 C1102.94999,133.962491 1100.74501,132.590005 1098.225,131.6 C1095.70499,130.609995 1093.05001,130.115 1090.26,130.115 C1087.46999,130.115 1084.83751,130.609995 1082.3625,131.6 C1079.88749,132.590005 1077.70501,133.962491 1075.815,135.7175 C1073.92499,137.472509 1072.39501,139.609987 1071.225,142.13 C1070.05499,144.650013 1069.335,147.394985 1069.065,150.365 L1111.725,150.365 Z M1180.485,191 L1180.485,95.15 L1195.605,95.15 L1195.605,177.635 L1247.04,177.635 L1247.04,191 L1180.485,191 Z M1279.53,192.35 C1276.10998,192.35 1272.93751,191.787506 1270.0125,190.6625 C1267.08748,189.537494 1264.56751,187.98501 1262.4525,186.005 C1260.33749,184.02499 1258.67251,181.685014 1257.4575,178.985 C1256.24249,176.284987 1255.635,173.360016 1255.635,170.21 C1255.635,166.879983 1256.35499,163.865014 1257.795,161.165 C1259.23501,158.464987 1261.28249,156.12501 1263.9375,154.145 C1266.59251,152.16499 1269.74248,150.635005 1273.3875,149.555 C1277.03252,148.474995 1281.05998,147.935 1285.47,147.935 C1288.80002,147.935 1292.08498,148.227497 1295.325,148.8125 C1298.56502,149.397503 1301.48999,150.184995 1304.1,151.175 L1304.1,146.315 C1304.1,141.094974 1302.61501,137.022515 1299.645,134.0975 C1296.67498,131.172485 1292.40003,129.71 1286.82,129.71 C1283.03998,129.71 1279.32752,130.407493 1275.6825,131.8025 C1272.03748,133.197507 1268.28002,135.199987 1264.41,137.81 L1259.82,128.36 C1268.91004,122.239969 1278.35995,119.18 1288.17,119.18 C1297.89005,119.18 1305.44997,121.654975 1310.85,126.605 C1316.25003,131.555025 1318.95,138.664954 1318.95,147.935 L1318.95,173.45 C1318.95,176.600016 1320.25499,178.22 1322.865,178.31 L1322.865,191 C1321.42499,191.270001 1320.1875,191.45 1319.1525,191.54 C1318.11749,191.63 1317.105,191.675 1316.115,191.675 C1313.23498,191.675 1311.00751,190.955007 1309.4325,189.515 C1307.85749,188.074993 1306.89,186.230011 1306.53,183.98 L1306.125,179.525 C1302.97498,183.665021 1299.08252,186.837489 1294.4475,189.0425 C1289.81248,191.247511 1284.84003,192.35 1279.53,192.35 Z M1283.58,181.415 C1287.18002,181.415 1290.57748,180.762507 1293.7725,179.4575 C1296.96752,178.152493 1299.46499,176.330012 1301.265,173.99 C1303.15501,172.369992 1304.1,170.660009 1304.1,168.86 L1304.1,159.545 C1301.57999,158.554995 1298.90251,157.790003 1296.0675,157.25 C1293.23248,156.709997 1290.46501,156.44 1287.765,156.44 C1282.45497,156.44 1278.11252,157.587489 1274.7375,159.8825 C1271.36248,162.177511 1269.675,165.214981 1269.675,168.995 C1269.675,172.505018 1270.97999,175.452488 1273.59,177.8375 C1276.20001,180.222512 1279.52998,181.415 1283.58,181.415 Z M1378.305,192.35 C1372.90497,192.35 1368.02252,191.067513 1363.6575,188.5025 C1359.29248,185.937487 1355.85001,182.495022 1353.33,178.175 L1353.33,191 L1340.235,191 L1340.235,92.45 L1355.085,92.45 L1355.085,133.76 C1357.87501,129.259977 1361.36248,125.705013 1365.5475,123.095 C1369.73252,120.484987 1374.65997,119.18 1380.33,119.18 C1385.01002,119.18 1389.28498,120.19249 1393.155,122.2175 C1397.02502,124.24251 1400.33249,126.942483 1403.0775,130.3175 C1405.82251,133.692517 1407.93749,137.607478 1409.4225,142.0625 C1410.90751,146.517522 1411.65,151.174976 1411.65,156.035 C1411.65,161.075025 1410.79501,165.799978 1409.085,170.21 C1407.37499,174.620022 1405.03501,178.467484 1402.065,181.7525 C1399.09498,185.037516 1395.56252,187.624991 1391.4675,189.515 C1387.37248,191.405009 1382.98502,192.35 1378.305,192.35 Z M1374.39,179.66 C1377.63002,179.66 1380.59999,179.007507 1383.3,177.7025 C1386.00001,176.397493 1388.31749,174.665011 1390.2525,172.505 C1392.18751,170.344989 1393.69499,167.847514 1394.775,165.0125 C1395.855,162.177486 1396.395,159.185016 1396.395,156.035 C1396.395,152.884984 1395.8775,149.847515 1394.8425,146.9225 C1393.80749,143.997485 1392.36751,141.432511 1390.5225,139.2275 C1388.67749,137.022489 1386.47251,135.245007 1383.9075,133.895 C1381.34249,132.544993 1378.53001,131.87 1375.47,131.87 C1370.87998,131.87 1366.80752,133.354985 1363.2525,136.325 C1359.69748,139.295015 1356.97501,142.894979 1355.085,147.125 L1355.085,165.755 C1355.625,167.82501 1356.56999,169.692492 1357.92,171.3575 C1359.27001,173.022508 1360.84499,174.484994 1362.645,175.745 C1364.44501,177.005006 1366.37999,177.972497 1368.45,178.6475 C1370.52001,179.322503 1372.49999,179.66 1374.39,179.66 Z M1453.995,192.35 C1448.32497,192.35 1442.67753,191.427509 1437.0525,189.5825 C1431.42747,187.737491 1426.59002,185.105017 1422.54,181.685 L1428.48,172.235 C1432.71002,175.295015 1436.89498,177.612492 1441.035,179.1875 C1445.17502,180.762508 1449.40498,181.55 1453.725,181.55 C1458.13502,181.55 1461.62249,180.695009 1464.1875,178.985 C1466.75251,177.274991 1468.035,174.845016 1468.035,171.695 C1468.035,168.724985 1466.59501,166.565007 1463.715,165.215 C1460.83498,163.864993 1456.33503,162.380008 1450.215,160.76 C1445.80498,159.589994 1442.02501,158.465005 1438.875,157.385 C1435.72498,156.304995 1433.16001,155.045007 1431.18,153.605 C1429.19999,152.164993 1427.76,150.500009 1426.86,148.61 C1425.95999,146.719991 1425.51,144.425014 1425.51,141.725 C1425.51,138.124982 1426.20749,134.930014 1427.6025,132.14 C1428.99751,129.349986 1430.93249,126.98751 1433.4075,125.0525 C1435.88251,123.11749 1438.78498,121.655005 1442.115,120.665 C1445.44502,119.674995 1449.04498,119.18 1452.915,119.18 C1458.22503,119.18 1463.17498,119.989992 1467.765,121.61 C1472.35502,123.230008 1476.44998,125.569985 1480.05,128.63 L1473.705,137.54 C1467.13497,132.319974 1460.16004,129.71 1452.78,129.71 C1448.99998,129.71 1445.82751,130.497492 1443.2625,132.0725 C1440.69749,133.647508 1439.415,136.144983 1439.415,139.565 C1439.415,141.005007 1439.685,142.219995 1440.225,143.21 C1440.765,144.200005 1441.64249,145.054996 1442.8575,145.775 C1444.07251,146.495004 1445.64749,147.147497 1447.5825,147.7325 C1449.51751,148.317503 1451.92498,148.969996 1454.805,149.69 C1459.57502,150.860006 1463.69248,152.029994 1467.1575,153.2 C1470.62252,154.370006 1473.47999,155.742492 1475.73,157.3175 C1477.98001,158.892508 1479.64499,160.737489 1480.725,162.8525 C1481.805,164.967511 1482.345,167.509985 1482.345,170.48 C1482.345,177.230034 1479.80252,182.56248 1474.7175,186.4775 C1469.63247,190.39252 1462.72504,192.35 1453.995,192.35 Z" id="Square-One-Labs-Copy-5" fill="#6EB3F6"></path>
            </g>
        </g>
    </g>
</svg>