<?xml version="1.0" encoding="UTF-8"?>
<svg width="150px" height="150px" viewBox="0 0 150 150" version="1.1" xmlns="http://www.w3.org/2000/svg" xmlns:xlink="http://www.w3.org/1999/xlink">
    <!-- Generator: Sketch 42 (36781) - http://www.bohemiancoding.com/sketch -->
    <title>Coming soon</title>
    <desc>Created with Sketch.</desc>
    <defs></defs>
    <g id="Symbols" stroke="none" stroke-width="1" fill="none" fill-rule="evenodd">
        <g id="Coming-soon">
            <g>
                <rect id="Rectangle" x="0" y="0" width="150" height="150"></rect>
                <path d="M16.712,125.176 C17.4960039,125.176 18.1479974,125.108001 18.668,124.972 C19.1880026,124.835999 19.6799977,124.656001 20.144,124.432 L20.696,126.424 C20.1839974,126.664001 19.5920034,126.859999 18.92,127.012 C18.2479966,127.164001 17.4240049,127.24 16.448,127.24 C15.4079948,127.24 14.4360045,127.068002 13.532,126.724 C12.6279955,126.379998 11.8440033,125.876003 11.18,125.212 C10.5159967,124.547997 9.99200192,123.732005 9.608,122.764 C9.22399808,121.795995 9.032,120.688006 9.032,119.44 C9.032,118.223994 9.21599816,117.132005 9.584,116.164 C9.95200184,115.195995 10.4679967,114.376003 11.132,113.704 C11.7960033,113.031997 12.5879954,112.520002 13.508,112.168 C14.4280046,111.815998 15.4399945,111.64 16.544,111.64 C17.552005,111.64 18.3799968,111.723999 19.028,111.892 C19.6760032,112.060001 20.2479975,112.279999 20.744,112.552 L20.144,114.496 C19.5999973,114.255999 19.0840024,114.064001 18.596,113.92 C18.1079976,113.775999 17.5280034,113.704 16.856,113.704 C16.1679966,113.704 15.5160031,113.807999 14.9,114.016 C14.2839969,114.224001 13.7480023,114.559998 13.292,115.024 C12.8359977,115.488002 12.4720014,116.083996 12.2,116.812 C11.9279986,117.540004 11.792,118.415995 11.792,119.44 C11.792,120.464005 11.9239987,121.339996 12.188,122.068 C12.4520013,122.796004 12.8039978,123.387998 13.244,123.844 C13.6840022,124.300002 14.203997,124.635999 14.804,124.852 C15.404003,125.068001 16.0399966,125.176 16.712,125.176 Z M33.2218182,121.216 C33.2218182,122.160005 33.0738197,123.007996 32.7778182,123.76 C32.4818167,124.512004 32.0778207,125.143997 31.5658182,125.656 C31.0538156,126.168003 30.4538216,126.559999 29.7658182,126.832 C29.0778147,127.104001 28.3338222,127.24 27.5338182,127.24 C26.7338142,127.24 25.9938216,127.112001 25.3138182,126.856 C24.6338148,126.599999 24.0418207,126.228002 23.5378182,125.74 C23.0338157,125.251998 22.6418196,124.648004 22.3618182,123.928 C22.0818168,123.207996 21.9418182,122.384005 21.9418182,121.456 C21.9418182,120.495995 22.0898167,119.648004 22.3858182,118.912 C22.6818197,118.175996 23.0858156,117.552003 23.5978182,117.04 C24.1098207,116.527997 24.7098147,116.140001 25.3978182,115.876 C26.0858216,115.611999 26.8298142,115.48 27.6298182,115.48 C28.4298222,115.48 29.1698148,115.603999 29.8498182,115.852 C30.5298216,116.100001 31.1218157,116.463998 31.6258182,116.944 C32.1298207,117.424002 32.5218168,118.023996 32.8018182,118.744 C33.0818196,119.464004 33.2218182,120.287995 33.2218182,121.216 Z M30.6538182,121.336 C30.6538182,120.615996 30.5658191,120.004003 30.3898182,119.5 C30.2138173,118.995997 29.9818196,118.584002 29.6938182,118.264 C29.4058167,117.943998 29.07782,117.712001 28.7098182,117.568 C28.3418163,117.423999 27.9578202,117.352 27.5578182,117.352 C27.1738163,117.352 26.79782,117.415999 26.4298182,117.544 C26.0618163,117.672001 25.7338196,117.887998 25.4458182,118.192 C25.1578167,118.496002 24.929819,118.903997 24.7618182,119.416 C24.5938173,119.928003 24.5098182,120.567996 24.5098182,121.336 C24.5098182,122.040004 24.5978173,122.647997 24.7738182,123.16 C24.9498191,123.672003 25.1818167,124.091998 25.4698182,124.42 C25.7578196,124.748002 26.0898163,124.987999 26.4658182,125.14 C26.8418201,125.292001 27.2218163,125.368 27.6058182,125.368 C27.9898201,125.368 28.3658163,125.304001 28.7338182,125.176 C29.10182,125.047999 29.4298167,124.828002 29.7178182,124.516 C30.0058196,124.203998 30.2338173,123.788003 30.4018182,123.268 C30.569819,122.747997 30.6538182,122.104004 30.6538182,121.336 Z M38.1876364,127 L35.7156364,127 L35.7156364,115.672 L37.6356364,115.672 L37.9716364,117.184 C38.499639,116.655997 39.0676333,116.240002 39.6756364,115.936 C40.2836394,115.631998 40.9956323,115.48 41.8116364,115.48 C42.6276405,115.48 43.2956338,115.639998 43.8156364,115.96 C44.335639,116.280002 44.731635,116.727997 45.0036364,117.304 C45.5476391,116.727997 46.1516331,116.280002 46.8156364,115.96 C47.4796397,115.639998 48.2116324,115.48 49.0116364,115.48 C50.1956423,115.48 51.0876334,115.803997 51.6876364,116.452 C52.2876394,117.100003 52.5876364,118.015994 52.5876364,119.2 L52.5876364,127 L50.1156364,127 L50.1156364,119.584 C50.1156364,118.895997 49.9676379,118.368002 49.6716364,118 C49.3756349,117.631998 48.8916397,117.448 48.2196364,117.448 C47.1956313,117.448 46.2516407,117.903995 45.3876364,118.816 L45.3876364,127 L42.9156364,127 L42.9156364,119.584 C42.9156364,118.895997 42.7676379,118.368002 42.4716364,118 C42.1756349,117.631998 41.6916397,117.448 41.0196364,117.448 C39.9956313,117.448 39.0516407,117.927995 38.1876364,118.888 L38.1876364,127 Z M56.0174546,127 L56.0174546,115.672 L58.4894546,115.672 L58.4894546,127 L56.0174546,127 Z M57.2654546,112.864 C56.8334524,112.864 56.4894558,112.732001 56.2334546,112.468 C55.9774533,112.203999 55.8494546,111.872002 55.8494546,111.472 C55.8494546,111.071998 55.9774533,110.740001 56.2334546,110.476 C56.4894558,110.211999 56.8334524,110.08 57.2654546,110.08 C57.6814566,110.08 58.0214532,110.211999 58.2854546,110.476 C58.5494559,110.740001 58.6814546,111.071998 58.6814546,111.472 C58.6814546,111.888002 58.5494559,112.223999 58.2854546,112.48 C58.0214532,112.736001 57.6814566,112.864 57.2654546,112.864 Z M64.3912727,127 L61.9192727,127 L61.9192727,115.672 L63.8632727,115.672 L64.1992727,117.184 C64.7592755,116.639997 65.3472697,116.220001 65.9632727,115.924 C66.5792758,115.627999 67.2792688,115.48 68.0632727,115.48 C69.2632787,115.48 70.1912695,115.807997 70.8472727,116.464 C71.503276,117.120003 71.8312727,118.055994 71.8312727,119.272 L71.8312727,127 L69.3592727,127 L69.3592727,119.584 C69.3592727,118.927997 69.1912744,118.408002 68.8552727,118.024 C68.5192711,117.639998 68.0152761,117.448 67.3432727,117.448 C66.8312702,117.448 66.3232753,117.571999 65.8192727,117.82 C65.3152702,118.068001 64.839275,118.423998 64.3912727,118.888 L64.3912727,127 Z M74.7330909,119.464 C74.7330909,118.839997 74.8490898,118.280002 75.0810909,117.784 C75.3130921,117.287998 75.6370889,116.868002 76.0530909,116.524 C76.469093,116.179998 76.9650881,115.920001 77.5410909,115.744 C78.1170938,115.567999 78.7410876,115.48 79.4130909,115.48 C79.9090934,115.48 80.4130884,115.543999 80.9250909,115.672 L85.7970909,115.672 L85.7970909,117.376 L84.9570909,117.376 L83.1810909,117.136 C83.4530923,117.440002 83.6690901,117.791998 83.8290909,118.192 C83.9890917,118.592002 84.0690909,119.007998 84.0690909,119.44 C84.0690909,120.064003 83.9570921,120.619998 83.7330909,121.108 C83.5090898,121.596002 83.193093,122.011998 82.7850909,122.356 C82.3770889,122.700002 81.8850938,122.959999 81.3090909,123.136 C80.7330881,123.312001 80.1010944,123.4 79.4130909,123.4 C79.1890898,123.4 78.9770919,123.392 78.7770909,123.376 C78.5770899,123.36 78.3810919,123.336 78.1890909,123.304 C77.8850894,123.432001 77.6690916,123.583999 77.5410909,123.76 C77.4130903,123.936001 77.3490909,124.127999 77.3490909,124.336 C77.3490909,124.656002 77.4610898,124.879999 77.6850909,125.008 C77.9090921,125.136001 78.2290889,125.2 78.6450909,125.2 L81.5010909,125.2 C82.7490972,125.2 83.7210875,125.483997 84.4170909,126.052 C85.1130944,126.620003 85.4610909,127.431995 85.4610909,128.488 C85.4610909,129.112003 85.3210923,129.675997 85.0410909,130.18 C84.7610895,130.684003 84.3610935,131.115998 83.8410909,131.476 C83.3210883,131.836002 82.6930946,132.111999 81.9570909,132.304 C81.2210873,132.496001 80.3970955,132.592 79.4850909,132.592 C77.8050825,132.592 76.4770958,132.296003 75.5010909,131.704 C74.5250861,131.111997 74.0370909,130.240006 74.0370909,129.088 C74.0370909,128.527997 74.2210891,128.048002 74.5890909,127.648 C74.9570928,127.247998 75.4450879,126.936001 76.0530909,126.712 C75.7650895,126.519999 75.5330918,126.292001 75.3570909,126.028 C75.1810901,125.763999 75.0930909,125.416002 75.0930909,124.984 C75.0930909,124.471997 75.2450894,124.036002 75.5490909,123.676 C75.8530925,123.315998 76.2530885,123.032001 76.7490909,122.824 C76.1730881,122.551999 75.6930929,122.140003 75.3090909,121.588 C74.925089,121.035997 74.7330909,120.328004 74.7330909,119.464 Z M77.4690909,127.12 C76.7330873,127.472002 76.3650909,127.999996 76.3650909,128.704 C76.3650909,129.344003 76.6250883,129.831998 77.1450909,130.168 C77.6650935,130.504002 78.4770854,130.672 79.5810909,130.672 C80.2050941,130.672 80.7330888,130.612001 81.1650909,130.492 C81.5970931,130.371999 81.9530895,130.216001 82.2330909,130.024 C82.5130923,129.831999 82.7170903,129.616001 82.8450909,129.376 C82.9730916,129.135999 83.0370909,128.888001 83.0370909,128.632 C83.0370909,128.023997 82.833093,127.620001 82.4250909,127.42 C82.0170889,127.219999 81.4770943,127.12 80.8050909,127.12 L77.4690909,127.12 Z M81.5970909,119.488 C81.5970909,118.719996 81.3970929,118.148002 80.9970909,117.772 C80.5970889,117.395998 80.0690942,117.208 79.4130909,117.208 C78.7410876,117.208 78.2090929,117.391998 77.8170909,117.76 C77.425089,118.128002 77.2290909,118.679996 77.2290909,119.416 C77.2290909,120.184004 77.4290889,120.751998 77.8290909,121.12 C78.2290929,121.488002 78.7570877,121.672 79.4130909,121.672 C80.0850943,121.672 80.617089,121.488002 81.0090909,121.12 C81.4010929,120.751998 81.5970909,120.208004 81.5970909,119.488 Z M98.2727273,111.64 C99.9207355,111.64 101.360721,111.943997 102.592727,112.552 L101.992727,114.592 C101.320724,114.271998 100.70073,114.036001 100.132727,113.884 C99.5647245,113.731999 98.9927302,113.656 98.4167273,113.656 C97.552723,113.656 96.8727298,113.839998 96.3767273,114.208 C95.8807248,114.576002 95.6327273,115.087997 95.6327273,115.744 C95.6327273,116.320003 95.8247254,116.775998 96.2087273,117.112 C96.5927292,117.448002 97.216723,117.751999 98.0807273,118.024 L99.5687273,118.504 C100.880734,118.920002 101.840724,119.499996 102.448727,120.244 C103.05673,120.988004 103.360727,121.847995 103.360727,122.824 C103.360727,123.480003 103.232729,124.079997 102.976727,124.624 C102.720726,125.168003 102.35673,125.631998 101.884727,126.016 C101.412725,126.400002 100.840731,126.699999 100.168727,126.916 C99.4967239,127.132001 98.7527314,127.24 97.9367273,127.24 C97.1207232,127.24 96.3087313,127.164001 95.5007273,127.012 C94.6927233,126.859999 93.9047311,126.600002 93.1367273,126.232 L93.7367273,124.216 C94.4247307,124.552002 95.096724,124.803999 95.7527273,124.972 C96.4087306,125.140001 97.0967237,125.224 97.8167273,125.224 C98.6807316,125.224 99.3847246,125.040002 99.9287273,124.672 C100.47273,124.303998 100.744727,123.760004 100.744727,123.04 C100.744727,122.527997 100.556729,122.072002 100.180727,121.672 C99.8047254,121.271998 99.0727327,120.896002 97.9847273,120.544 L96.5687273,120.088 C95.4647218,119.719998 94.5967305,119.228003 93.9647273,118.612 C93.3327241,117.995997 93.0167273,117.136006 93.0167273,116.032 C93.0167273,114.703993 93.4647228,113.640004 94.3607273,112.84 C95.2567318,112.039996 96.5607187,111.64 98.2727273,111.64 Z M116.534545,121.216 C116.534545,122.160005 116.386547,123.007996 116.090545,123.76 C115.794544,124.512004 115.390548,125.143997 114.878545,125.656 C114.366543,126.168003 113.766549,126.559999 113.078545,126.832 C112.390542,127.104001 111.646549,127.24 110.846545,127.24 C110.046541,127.24 109.306549,127.112001 108.626545,126.856 C107.946542,126.599999 107.354548,126.228002 106.850545,125.74 C106.346543,125.251998 105.954547,124.648004 105.674545,123.928 C105.394544,123.207996 105.254545,122.384005 105.254545,121.456 C105.254545,120.495995 105.402544,119.648004 105.698545,118.912 C105.994547,118.175996 106.398543,117.552003 106.910545,117.04 C107.422548,116.527997 108.022542,116.140001 108.710545,115.876 C109.398549,115.611999 110.142541,115.48 110.942545,115.48 C111.742549,115.48 112.482542,115.603999 113.162545,115.852 C113.842549,116.100001 114.434543,116.463998 114.938545,116.944 C115.442548,117.424002 115.834544,118.023996 116.114545,118.744 C116.394547,119.464004 116.534545,120.287995 116.534545,121.216 Z M113.966545,121.336 C113.966545,120.615996 113.878546,120.004003 113.702545,119.5 C113.526545,118.995997 113.294547,118.584002 113.006545,118.264 C112.718544,117.943998 112.390547,117.712001 112.022545,117.568 C111.654544,117.423999 111.270547,117.352 110.870545,117.352 C110.486544,117.352 110.110547,117.415999 109.742545,117.544 C109.374544,117.672001 109.046547,117.887998 108.758545,118.192 C108.470544,118.496002 108.242546,118.903997 108.074545,119.416 C107.906545,119.928003 107.822545,120.567996 107.822545,121.336 C107.822545,122.040004 107.910545,122.647997 108.086545,123.16 C108.262546,123.672003 108.494544,124.091998 108.782545,124.42 C109.070547,124.748002 109.402544,124.987999 109.778545,125.14 C110.154547,125.292001 110.534544,125.368 110.918545,125.368 C111.302547,125.368 111.678544,125.304001 112.046545,125.176 C112.414547,125.047999 112.742544,124.828002 113.030545,124.516 C113.318547,124.203998 113.546545,123.788003 113.714545,123.268 C113.882546,122.747997 113.966545,122.104004 113.966545,121.336 Z M129.636364,121.216 C129.636364,122.160005 129.488365,123.007996 129.192364,123.76 C128.896362,124.512004 128.492366,125.143997 127.980364,125.656 C127.468361,126.168003 126.868367,126.559999 126.180364,126.832 C125.49236,127.104001 124.748368,127.24 123.948364,127.24 C123.14836,127.24 122.408367,127.112001 121.728364,126.856 C121.04836,126.599999 120.456366,126.228002 119.952364,125.74 C119.448361,125.251998 119.056365,124.648004 118.776364,123.928 C118.496362,123.207996 118.356364,122.384005 118.356364,121.456 C118.356364,120.495995 118.504362,119.648004 118.800364,118.912 C119.096365,118.175996 119.500361,117.552003 120.012364,117.04 C120.524366,116.527997 121.12436,116.140001 121.812364,115.876 C122.500367,115.611999 123.24436,115.48 124.044364,115.48 C124.844368,115.48 125.58436,115.603999 126.264364,115.852 C126.944367,116.100001 127.536361,116.463998 128.040364,116.944 C128.544366,117.424002 128.936362,118.023996 129.216364,118.744 C129.496365,119.464004 129.636364,120.287995 129.636364,121.216 Z M127.068364,121.336 C127.068364,120.615996 126.980365,120.004003 126.804364,119.5 C126.628363,118.995997 126.396365,118.584002 126.108364,118.264 C125.820362,117.943998 125.492366,117.712001 125.124364,117.568 C124.756362,117.423999 124.372366,117.352 123.972364,117.352 C123.588362,117.352 123.212366,117.415999 122.844364,117.544 C122.476362,117.672001 122.148365,117.887998 121.860364,118.192 C121.572362,118.496002 121.344365,118.903997 121.176364,119.416 C121.008363,119.928003 120.924364,120.567996 120.924364,121.336 C120.924364,122.040004 121.012363,122.647997 121.188364,123.16 C121.364365,123.672003 121.596362,124.091998 121.884364,124.42 C122.172365,124.748002 122.504362,124.987999 122.880364,125.14 C123.256366,125.292001 123.636362,125.368 124.020364,125.368 C124.404366,125.368 124.780362,125.304001 125.148364,125.176 C125.516366,125.047999 125.844362,124.828002 126.132364,124.516 C126.420365,124.203998 126.648363,123.788003 126.816364,123.268 C126.984365,122.747997 127.068364,122.104004 127.068364,121.336 Z M134.602182,127 L132.130182,127 L132.130182,115.672 L134.074182,115.672 L134.410182,117.184 C134.970185,116.639997 135.558179,116.220001 136.174182,115.924 C136.790185,115.627999 137.490178,115.48 138.274182,115.48 C139.474188,115.48 140.402179,115.807997 141.058182,116.464 C141.714185,117.120003 142.042182,118.055994 142.042182,119.272 L142.042182,127 L139.570182,127 L139.570182,119.584 C139.570182,118.927997 139.402184,118.408002 139.066182,118.024 C138.73018,117.639998 138.226185,117.448 137.554182,117.448 C137.042179,117.448 136.534184,117.571999 136.030182,117.82 C135.526179,118.068001 135.050184,118.423998 134.602182,118.888 L134.602182,127 Z M91.4657111,41.7352298 C90.6831231,40.9572452 90.6855232,39.693497 91.4676941,38.9159272 L103.018036,27.4335281 C103.801719,26.6544548 105.072023,26.6541582 105.854021,27.4315568 L106.049137,27.6255251 C106.831725,28.4035096 106.829325,29.6672578 106.047154,30.4448277 L94.496812,41.9272267 C93.7131288,42.7063 92.4428257,42.7065966 91.6608271,41.929198 L91.4657111,41.7352298 Z M103.907227,85.3860919 L103.712111,85.5800601 C102.930113,86.3574587 101.65981,86.3571621 100.876126,85.5780888 L89.3257843,74.0956898 C88.5436134,73.3181199 88.5412133,72.0543717 89.3238013,71.2763871 L89.5189173,71.0824189 C90.3009159,70.3050203 91.571219,70.3053169 92.3549022,71.0843902 L103.905244,82.5667892 C104.687415,83.3443591 104.689815,84.6081073 103.907227,85.3860919 Z M117.385068,56.2262537 L117.384256,56.5013778 C117.381004,57.6040381 116.482554,58.5020683 115.377518,58.505328 L99.0909108,58.5533711 C97.9880075,58.5566245 97.0927055,57.6647167 97.0959607,56.5612253 L97.0967722,56.2861012 C97.1000249,55.1834409 97.9984746,54.2854106 99.1035103,54.282151 L115.390118,54.2341079 C116.493021,54.2308545 117.388323,55.1227623 117.385068,56.2262537 Z M46.4457849,85.4372177 C45.6629362,84.654369 45.6651249,83.3829317 46.4472958,82.6007608 L57.997638,71.0504186 C58.7813212,70.2667354 60.0552411,70.2700539 60.8340949,71.0489077 L61.0104485,71.2252613 C61.7932973,72.00811 61.7911085,73.2795473 61.0089376,74.0617182 L49.4585954,85.6120604 C48.6749122,86.3957436 47.4009923,86.3924251 46.6221385,85.6135713 L46.4457849,85.4372177 Z M75.5321996,36.2284483 C74.4323703,36.2284483 73.5407825,35.3331562 73.5407825,34.2335064 L73.5407825,17.9949419 C73.5407825,16.8931659 74.4283927,16 75.5321996,16 L75.833185,16 C76.9330143,16 77.8246021,16.895292 77.8246021,17.9949419 L77.8246021,34.2335064 C77.8246021,35.3352824 76.9369919,36.2284483 75.833185,36.2284483 L75.5321996,36.2284483 Z M75.5321996,93.7198276 C74.4323703,93.7198276 73.5407825,92.8212218 73.5407825,91.7231986 L73.5407825,76.5526635 C73.5407825,75.4499557 74.4283927,74.5560345 75.5321996,74.5560345 L75.833185,74.5560345 C76.9330143,74.5560345 77.8246021,75.4546403 77.8246021,76.5526635 L77.8246021,91.7231986 C77.8246021,92.8259063 76.9369919,93.7198276 75.833185,93.7198276 L75.5321996,93.7198276 Z" id="Combined-Shape" fill="#505056"></path>
                <path d="M56.0869911,56.2262537 L56.0861795,56.5013778 C56.0829268,57.6040381 55.1844771,58.5020683 54.0794414,58.505328 L37.7928339,58.5533711 C36.6899306,58.5566245 35.7946286,57.6647167 35.7978837,56.5612253 L35.7986953,56.2861012 C35.801948,55.1834409 36.7003977,54.2854106 37.8054334,54.282151 L54.0920409,54.2341079 C55.1949442,54.2308545 56.0902462,55.1227623 56.0869911,56.2262537 Z M61.0104485,40.7217005 L60.8340949,40.8980541 C60.0552411,41.6769079 58.7813212,41.6802263 57.997638,40.8965431 L46.4472958,29.3462009 C45.6651249,28.56403 45.6629362,27.2925927 46.4457849,26.509744 L46.6221385,26.3333904 C47.4009923,25.5545366 48.6749122,25.5512182 49.4585954,26.3349014 L61.0089376,37.8852436 C61.7911085,38.6674145 61.7932973,39.9388518 61.0104485,40.7217005 Z" id="Combined-Shape" fill="#505056" opacity="0.5"></path>
            </g>
        </g>
    </g>
</svg>