<?xml version="1.0" encoding="UTF-8"?>
<svg width="150px" height="150px" viewBox="0 0 150 150" version="1.1" xmlns="http://www.w3.org/2000/svg" xmlns:xlink="http://www.w3.org/1999/xlink">
    <!-- Generator: Sketch 42 (36781) - http://www.bohemiancoding.com/sketch -->
    <title>Friend</title>
    <desc>Created with Sketch.</desc>
    <defs></defs>
    <g id="Symbols" stroke="none" stroke-width="1" fill="none" fill-rule="evenodd">
        <g id="Friend">
            <g>
                <rect id="Rectangle" x="0" y="0" width="150" height="150"></rect>
                <path d="M48.8694138,90.4665095 C51.5171672,87.7279967 62.28984,98.3087232 76.1935118,98.4665095 C89.7827831,98.3087232 101.406893,87.4171719 103.430983,90.4665095 C105.16711,95.3933391 92.4586137,108.46651 75.371683,108.46651 C57.9731951,108.46651 46.637594,94.9095552 48.8694138,90.4665095 Z M36.7495117,65.6523438 C37.0043958,65.6523438 37.2427561,65.6995438 37.4645996,65.7939453 C37.6864432,65.8883468 37.8823234,66.020507 38.0522461,66.1904297 C38.2221688,66.3603524 38.354329,66.5562326 38.4487305,66.7780762 C38.543132,66.9999197 38.590332,67.23828 38.590332,67.4931641 C38.590332,67.7480481 38.543132,67.9864084 38.4487305,68.208252 C38.354329,68.4300955 38.2221688,68.6236157 38.0522461,68.7888184 C37.8823234,68.954021 37.6864432,69.0838211 37.4645996,69.1782227 C37.2427561,69.2726242 37.0043958,69.3198242 36.7495117,69.3198242 L30.3491211,69.3198242 L30.3349609,75.2387695 C30.3349609,75.6258157 30.2665209,75.9868961 30.1296387,76.3220215 C29.9927565,76.6571469 29.8039563,76.9497872 29.5632324,77.1999512 C29.3225086,77.4501152 29.0440283,77.6459954 28.7277832,77.7875977 C28.4115381,77.9291999 28.0693378,78 27.7011719,78 C27.333006,78 26.9908056,77.9291999 26.6745605,77.7875977 C26.3583155,77.6459954 26.0821952,77.4501152 25.8461914,77.1999512 C25.6101876,76.9497872 25.4237474,76.6571469 25.2868652,76.3220215 C25.149983,75.9868961 25.081543,75.6258157 25.081543,75.2387695 L25.081543,60.059082 C25.081543,59.6059548 25.1712231,59.2141944 25.3505859,58.8837891 C25.5299488,58.5533838 25.7706691,58.2819835 26.0727539,58.0695801 C26.3748388,57.8571767 26.7288391,57.6990565 27.1347656,57.5952148 C27.5406921,57.4913732 27.9654926,57.4394531 28.4091797,57.4394531 L37.1884766,57.4394531 C37.4433606,57.4394531 37.6817209,57.4890132 37.9035645,57.5881348 C38.125408,57.6872564 38.3212882,57.8194165 38.4912109,57.9846191 C38.6611337,58.1498218 38.7932938,58.345702 38.8876953,58.5722656 C38.9820968,58.7988293 39.0292969,59.0395495 39.0292969,59.2944336 C39.0292969,59.5493177 38.9820968,59.7876779 38.8876953,60.0095215 C38.7932938,60.231365 38.6611337,60.4248852 38.4912109,60.5900879 C38.3212882,60.7552905 38.125408,60.8850907 37.9035645,60.9794922 C37.6817209,61.0738937 37.4433606,61.1210938 37.1884766,61.1210938 L30.3491211,61.1210938 L30.3491211,65.6523438 L36.7495117,65.6523438 Z M47.4243129,75.2387695 C47.4243129,75.6258157 47.3558728,75.9868961 47.2189906,76.3220215 C47.0821084,76.6571469 46.8933082,76.9497872 46.6525843,77.1999512 C46.4118605,77.4501152 46.1333802,77.6459954 45.8171351,77.7875977 C45.50089,77.9291999 45.1586897,78 44.7905238,78 C44.4223579,78 44.0801575,77.9291999 43.7639125,77.7875977 C43.4476674,77.6459954 43.1715471,77.4501152 42.9355433,77.1999512 C42.6995395,76.9497872 42.5130993,76.6571469 42.3762171,76.3220215 C42.239335,75.9868961 42.1708949,75.6258157 42.1708949,75.2387695 L42.1708949,60.0307617 C42.1708949,59.5965148 42.258215,59.2165544 42.4328578,58.8908691 C42.6075006,58.5651839 42.8411408,58.2937836 43.1337855,58.0766602 C43.4264302,57.8595367 43.7686306,57.6966965 44.1603968,57.5881348 C44.5521631,57.479573 44.9651635,57.425293 45.3994105,57.425293 L51.0776332,57.425293 C52.12549,57.425293 53.130851,57.493733 54.0937464,57.6306152 C55.0566419,57.7674974 55.9038828,58.0247377 56.6354945,58.4023438 C57.3671062,58.7799498 57.9523868,59.3038703 58.3913539,59.9741211 C58.8303209,60.6443718 59.0498011,61.5175727 59.0498011,62.59375 C59.0498011,63.1790394 58.9695611,63.73364 58.8090785,64.2575684 C58.6485959,64.7814968 58.3889956,65.2534972 58.0302699,65.673584 C57.6715441,66.0936707 57.2019036,66.4523911 56.6213343,66.7497559 C56.040765,67.0471206 55.3304043,67.2666009 54.4902308,67.4082031 L54.4902308,67.4648438 C55.0944005,67.540365 55.611241,67.6512851 56.0407679,67.7976074 C56.4702948,67.9439298 56.8360952,68.13745 57.13818,68.3781738 C57.4402649,68.6188977 57.6857051,68.909178 57.8745082,69.2490234 C58.0633112,69.5888689 58.2190714,69.9900693 58.3417933,70.4526367 C58.4645153,70.9152041 58.5636354,71.4414847 58.6391566,72.0314941 C58.7146778,72.6215036 58.7854779,73.2893843 58.8515589,74.0351562 C58.8704392,74.2428396 58.8845993,74.4434398 58.8940394,74.6369629 C58.9034796,74.830486 58.9081996,75.0216462 58.9081996,75.2104492 C58.9081996,75.6163757 58.8704395,75.9892561 58.7949183,76.3291016 C58.7193971,76.668947 58.587237,76.9615873 58.3984339,77.2070312 C58.2096309,77.4524752 57.9500307,77.6436354 57.6196254,77.7805176 C57.2892201,77.9173998 56.8644196,77.9858398 56.3452113,77.9858398 C55.8732037,77.9858398 55.4790833,77.8772797 55.1628382,77.6601562 C54.8465932,77.4430328 54.5846329,77.1456725 54.3769496,76.7680664 C54.1692662,76.3904604 54.0111461,75.9538599 53.9025843,75.458252 C53.7940226,74.962644 53.7067025,74.4316435 53.6406214,73.8652344 C53.5462199,73.0439412 53.4494598,72.3571805 53.3503382,71.8049316 C53.2512167,71.2526828 53.0930965,70.8066423 52.875973,70.4667969 C52.6588495,70.1269514 52.3496892,69.8862312 51.9484828,69.7446289 C51.5472763,69.6030266 50.9973958,69.5322266 50.2988246,69.5322266 L47.4243129,69.5322266 L47.4243129,75.2387695 Z M49.6049769,66.2470703 C50.1147451,66.2470703 50.6245056,66.2163903 51.1342738,66.1550293 C51.644042,66.0936683 52.1042424,65.9662282 52.514889,65.7727051 C52.9255356,65.579182 53.258296,65.2959817 53.51318,64.9230957 C53.7680641,64.5502097 53.8955043,64.0522492 53.8955043,63.4291992 C53.8955043,62.7117477 53.7727841,62.1736672 53.5273402,61.8149414 C53.2818963,61.4562157 52.9562159,61.1871754 52.5502894,61.0078125 C52.1443629,60.8284496 51.6747224,60.7175295 51.1413539,60.6750488 C50.6079853,60.6325681 50.0533847,60.6113281 49.4775355,60.6113281 L47.3393519,60.6113281 L47.3393519,66.2470703 L49.6049769,66.2470703 Z M68.2377859,75.2387695 C68.2377859,75.6258157 68.1693458,75.9868961 68.0324636,76.3220215 C67.8955814,76.6571469 67.7067812,76.9497872 67.4660573,77.1999512 C67.2253335,77.4501152 66.9468532,77.6459954 66.6306081,77.7875977 C66.3143631,77.9291999 65.9721627,78 65.6039968,78 C65.2358309,78 64.8936305,77.9291999 64.5773855,77.7875977 C64.2611404,77.6459954 63.9850201,77.4501152 63.7490163,77.1999512 C63.5130125,76.9497872 63.3265724,76.6571469 63.1896902,76.3220215 C63.052808,75.9868961 62.9843679,75.6258157 62.9843679,75.2387695 L62.9843679,60.1865234 C62.9843679,59.7994772 63.052808,59.4383969 63.1896902,59.1032715 C63.3265724,58.7681461 63.5130125,58.4755058 63.7490163,58.2253418 C63.9850201,57.9751778 64.2611404,57.7792976 64.5773855,57.6376953 C64.8936305,57.496093 65.2358309,57.425293 65.6039968,57.425293 C65.9721627,57.425293 66.3143631,57.496093 66.6306081,57.6376953 C66.9468532,57.7792976 67.2253335,57.9751778 67.4660573,58.2253418 C67.7067812,58.4755058 67.8955814,58.7681461 68.0324636,59.1032715 C68.1693458,59.4383969 68.2377859,59.7994772 68.2377859,60.1865234 L68.2377859,75.2387695 Z M75.2451065,78 C74.7636588,78 74.3600984,77.9008799 74.0344132,77.7026367 C73.7087279,77.5043935 73.4467677,77.2471533 73.2485245,76.9309082 C73.0502813,76.6146631 72.9086812,76.2583028 72.8237198,75.8618164 C72.7387584,75.46533 72.6962784,75.0688496 72.6962784,74.6723633 L72.6962784,61.1777344 C72.6962784,60.6396457 72.7293184,60.1416852 72.7953995,59.6838379 C72.8614806,59.2259905 73.0078007,58.8318701 73.2343643,58.5014648 C73.460928,58.1710595 73.7913283,57.9114593 74.2255753,57.7226562 C74.6598222,57.5338532 75.2451028,57.4394531 75.9814347,57.4394531 L85.072255,57.4394531 C85.3460194,57.4394531 85.6032596,57.4890132 85.8439835,57.5881348 C86.0847073,57.6872564 86.2947476,57.8194165 86.4741104,57.9846191 C86.6534733,58.1498218 86.7950735,58.345702 86.8989151,58.5722656 C87.0027568,58.7988293 87.0546768,59.0395495 87.0546768,59.2944336 C87.0546768,59.5493177 87.0027568,59.7876779 86.8989151,60.0095215 C86.7950735,60.231365 86.6534733,60.4248852 86.4741104,60.5900879 C86.2947476,60.7552905 86.0847073,60.8850907 85.8439835,60.9794922 C85.6032596,61.0738937 85.3460194,61.1210938 85.072255,61.1210938 L77.7797745,61.1210938 L77.7797745,65.7089844 L84.4350479,65.7089844 C84.7088123,65.7089844 84.9660526,65.7561844 85.2067764,65.8505859 C85.4475003,65.9449875 85.6575405,66.0771476 85.8369034,66.2470703 C86.0162663,66.416993 86.1578664,66.6128732 86.2617081,66.8347168 C86.3655498,67.0565604 86.4174698,67.2949206 86.4174698,67.5498047 C86.4174698,67.8046888 86.3655498,68.043049 86.2617081,68.2648926 C86.1578664,68.4867361 86.0162663,68.6802563 85.8369034,68.845459 C85.6575405,69.0106616 85.4475003,69.1404618 85.2067764,69.2348633 C84.9660526,69.3292648 84.7088123,69.3764648 84.4350479,69.3764648 L77.7797745,69.3764648 L77.7797745,74.3325195 L85.4262589,74.3325195 C85.681143,74.3325195 85.9195032,74.3797196 86.1413468,74.4741211 C86.3631903,74.5685226 86.5590705,74.7006827 86.7289932,74.8706055 C86.898916,75.0405282 87.0310761,75.2364084 87.1254776,75.458252 C87.2198791,75.6800955 87.2670792,75.9184558 87.2670792,76.1733398 C87.2670792,76.4282239 87.2198791,76.6665842 87.1254776,76.8884277 C87.0310761,77.1102713 86.898916,77.3037915 86.7289932,77.4689941 C86.5590705,77.6341968 86.3631903,77.7639969 86.1413468,77.8583984 C85.9195032,77.9528 85.681143,78 85.4262589,78 L75.2451065,78 Z M95.0390483,75.7768555 C95.0390483,76.0883805 94.9800482,76.3786608 94.8620463,76.6477051 C94.7440444,76.9167494 94.5835643,77.1503896 94.380601,77.3486328 C94.1776378,77.546876 93.9416375,77.7049962 93.6725932,77.822998 C93.4035489,77.9409999 93.1132686,78 92.8017436,78 C92.4902186,78 92.1999383,77.9409999 91.930894,77.822998 C91.6618497,77.7049962 91.4282094,77.546876 91.2299663,77.3486328 C91.0317231,77.1503896 90.8759629,76.9167494 90.7626811,76.6477051 C90.6493993,76.3786608 90.5927592,76.0883805 90.5927592,75.7768555 L90.5927592,60.3139648 C90.5927592,59.8513974 90.6611993,59.440757 90.7980815,59.0820312 C90.9349637,58.7233055 91.1190439,58.4212252 91.3503276,58.1757812 C91.5816113,57.9303373 91.8530116,57.7438971 92.1645366,57.6164551 C92.4760616,57.489013 92.8111819,57.425293 93.1699077,57.425293 C93.4719925,57.425293 93.7669928,57.484293 94.0549174,57.6022949 C94.342842,57.7202968 94.6189623,57.878417 94.8832866,58.0766602 C95.1476108,58.2749033 95.4024911,58.5085436 95.647935,58.7775879 C95.8933789,59.0466322 96.1293792,59.3321925 96.3559428,59.6342773 L104.710435,70.9624023 L104.710435,59.6484375 C104.710435,59.3369125 104.767075,59.0466322 104.880357,58.7775879 C104.993639,58.5085436 105.149399,58.2749033 105.347642,58.0766602 C105.545885,57.878417 105.779525,57.7202968 106.04857,57.6022949 C106.317614,57.484293 106.607894,57.425293 106.919419,57.425293 C107.230944,57.425293 107.521225,57.484293 107.790269,57.6022949 C108.059313,57.7202968 108.292954,57.878417 108.491197,58.0766602 C108.68944,58.2749033 108.84756,58.5085436 108.965562,58.7775879 C109.083564,59.0466322 109.142564,59.3369125 109.142564,59.6484375 L109.142564,74.0634766 C109.142564,74.5826849 109.114244,75.0806454 109.057603,75.557373 C109.000962,76.0341007 108.882962,76.4518211 108.703599,76.8105469 C108.524236,77.1692726 108.269356,77.4571929 107.938951,77.6743164 C107.608545,77.8914399 107.169585,78 106.622056,78 C106.329411,78 106.043851,77.9433599 105.765367,77.8300781 C105.486882,77.7167963 105.217842,77.5610361 104.958238,77.362793 C104.698634,77.1645498 104.446113,76.9309095 104.200669,76.6618652 C103.955225,76.3928209 103.714505,76.1025406 103.478501,75.7910156 L95.0390483,64.3212891 L95.0390483,75.7768555 Z M115.824201,78 C115.314433,78 114.891992,77.8961599 114.556867,77.6884766 C114.221742,77.4807932 113.955061,77.2070329 113.756818,76.8671875 C113.558575,76.5273421 113.421695,76.1426617 113.346174,75.7131348 C113.270652,75.2836079 113.232892,74.8422874 113.232892,74.3891602 L113.232892,61.0786133 C113.232892,60.4461231 113.294252,59.8986026 113.416974,59.4360352 C113.539696,58.9734677 113.742657,58.5958673 114.025861,58.3032227 C114.309066,58.010578 114.679586,57.7934577 115.137433,57.6518555 C115.595281,57.5102532 116.159321,57.4394531 116.829572,57.4394531 L120.341291,57.4394531 C124.202313,57.4394531 127.114556,58.291414 129.078107,59.9953613 C131.041659,61.6993086 132.02342,64.3212714 132.02342,67.8613281 C132.02342,69.5888758 131.754379,71.0898374 131.216291,72.3642578 C130.678202,73.6386782 129.915921,74.6935993 128.929426,75.5290527 C127.94293,76.3645061 126.755849,76.9851868 125.368146,77.3911133 C123.980444,77.7970398 122.441722,78 120.751935,78 L115.824201,78 Z M118.41551,74.828125 L120.355451,74.828125 C121.431628,74.828125 122.356749,74.7054049 123.130842,74.4599609 C123.904934,74.214517 124.544495,73.7944366 125.049543,73.199707 C125.554591,72.6049775 125.927471,71.8662967 126.168195,70.9836426 C126.408919,70.1009884 126.529279,69.0177473 126.529279,67.7338867 C126.529279,65.3455284 126.033679,63.5660866 125.042463,62.3955078 C124.051247,61.224929 122.531405,60.6396484 120.482892,60.6396484 L118.41551,60.6396484 L118.41551,74.828125 Z" id="Combined-Shape" fill="#505056" fill-rule="nonzero"></path>
            </g>
        </g>
    </g>
</svg>