<?xml version="1.0" encoding="UTF-8" standalone="no"?>
<svg width="150px" height="150px" viewBox="0 0 150 150" version="1.1" xmlns="http://www.w3.org/2000/svg" xmlns:xlink="http://www.w3.org/1999/xlink">
    <!-- Generator: Sketch 42 (36781) - http://www.bohemiancoding.com/sketch -->
    <title>Autobuddy</title>
    <desc>Created with Sketch.</desc>
    <defs></defs>
    <g id="Symbols" stroke="none" stroke-width="1" fill="none" fill-rule="evenodd">
        <g id="Autobuddy">
            <g>
                <rect id="Rectangle" x="0" y="0" width="150" height="150"></rect>
                <path d="M7.91992188,126.34375 L5.19921875,133.330078 C5.14453098,133.457683 5.06705779,133.576171 4.96679688,133.685547 C4.74804578,133.895183 4.48828275,134 4.1875,134 C3.88671725,134 3.62923284,133.892905 3.41503906,133.678711 C3.20084528,133.464517 3.09375,133.207033 3.09375,132.90625 C3.09375,132.733072 3.12565072,132.578126 3.18945312,132.441406 L10.7910156,112.890625 C10.8457034,112.726562 10.9414056,112.576173 11.078125,112.439453 C11.2877615,112.229817 11.5429672,112.125 11.84375,112.125 C12.1445328,112.125 12.4042958,112.229817 12.6230469,112.439453 C12.7506517,112.576173 12.8417966,112.726562 12.8964844,112.890625 L20.4980469,132.441406 C20.5618493,132.578126 20.59375,132.733072 20.59375,132.90625 C20.59375,133.207033 20.4866547,133.464517 20.2724609,133.678711 C20.0582672,133.892905 19.8007828,134 19.5,134 C19.1992172,134 18.9440115,133.895183 18.734375,133.685547 C18.6249995,133.576171 18.542969,133.457683 18.4882812,133.330078 L15.7675781,126.34375 L7.91992188,126.34375 Z M14.9199219,124.15625 L11.84375,116.240234 L8.76757812,124.15625 L14.9199219,124.15625 Z M37.0254545,132.90625 C37.0254545,133.207033 36.9183593,133.464517 36.7041655,133.678711 C36.4899717,133.892905 36.2324873,134 35.9317045,134 C35.6309218,134 35.3734374,133.892905 35.1592436,133.678711 C34.9450498,133.464517 34.8379545,133.207033 34.8379545,132.90625 L34.8379545,132.017578 C33.4707602,133.339199 31.8301516,134 29.9160795,134 C27.9564343,134 26.2816464,133.30502 24.8916655,131.915039 C23.5016846,130.525058 22.8067045,128.85027 22.8067045,126.890625 L22.8067045,119.78125 C22.8067045,119.480467 22.9137998,119.222983 23.1279936,119.008789 C23.3421874,118.794595 23.5996718,118.6875 23.9004545,118.6875 C24.2012373,118.6875 24.4587217,118.794595 24.6729155,119.008789 C24.8871093,119.222983 24.9942045,119.480467 24.9942045,119.78125 L24.9942045,126.890625 C24.9942045,128.248705 25.474994,129.408524 26.4365874,130.370117 C27.3981807,131.331711 28.5579998,131.8125 29.9160795,131.8125 C31.2741593,131.8125 32.4339784,131.331711 33.3955717,130.370117 C34.3571651,129.408524 34.8379545,128.248705 34.8379545,126.890625 L34.8379545,119.78125 C34.8379545,119.480467 34.9450498,119.222983 35.1592436,119.008789 C35.3734374,118.794595 35.6309218,118.6875 35.9317045,118.6875 C36.2324873,118.6875 36.4899717,118.794595 36.7041655,119.008789 C36.9183593,119.222983 37.0254545,119.480467 37.0254545,119.78125 L37.0254545,132.90625 Z M46.8946591,131.8125 C47.1954418,131.8125 47.4529263,131.919595 47.66712,132.133789 C47.8813138,132.347983 47.9884091,132.605467 47.9884091,132.90625 C47.9884091,133.207033 47.8813138,133.464517 47.66712,133.678711 C47.4529263,133.892905 47.1954418,134 46.8946591,134 C43.2488075,134 41.4259091,132.177102 41.4259091,128.53125 L41.4259091,120.875 L40.3321591,120.875 C40.0313763,120.875 39.7738919,120.767905 39.5596982,120.553711 C39.3455044,120.339517 39.2384091,120.082033 39.2384091,119.78125 C39.2384091,119.480467 39.3455044,119.222983 39.5596982,119.008789 C39.7738919,118.794595 40.0313763,118.6875 40.3321591,118.6875 L41.4259091,118.6875 L41.4259091,113.21875 C41.4259091,112.917967 41.5330044,112.660483 41.7471982,112.446289 C41.9613919,112.232095 42.2188763,112.125 42.5196591,112.125 C42.8204418,112.125 43.0779263,112.232095 43.29212,112.446289 C43.5063138,112.660483 43.6134091,112.917967 43.6134091,113.21875 L43.6134091,118.6875 L45.814581,118.6875 C46.1153637,118.6875 46.3728481,118.794595 46.5870419,119.008789 C46.8012357,119.222983 46.908331,119.480467 46.908331,119.78125 C46.908331,120.082033 46.8012357,120.339517 46.5870419,120.553711 C46.3728481,120.767905 46.1153637,120.875 45.814581,120.875 L43.6134091,120.875 L43.6134091,128.53125 C43.6134091,130.718761 44.7071482,131.8125 46.8946591,131.8125 Z M65.5138636,126.34375 C65.5138636,128.458344 64.7664753,130.263013 63.2716761,131.757812 C61.776877,133.252612 59.9722075,134 57.8576136,134 C55.7430197,134 53.9383503,133.252612 52.4435511,131.757812 C50.948752,130.263013 50.2013636,128.458344 50.2013636,126.34375 C50.2013636,124.229156 50.948752,122.424487 52.4435511,120.929688 C53.9383503,119.434888 55.7430197,118.6875 57.8576136,118.6875 C59.9722075,118.6875 61.776877,119.434888 63.2716761,120.929688 C64.7664753,122.424487 65.5138636,124.229156 65.5138636,126.34375 Z M57.8576136,120.875 C56.3445852,120.875 55.0548846,121.408198 53.988473,122.474609 C52.9220614,123.541021 52.3888636,124.830722 52.3888636,126.34375 C52.3888636,127.856778 52.9220614,129.146479 53.988473,130.212891 C55.0548846,131.279302 56.3445852,131.8125 57.8576136,131.8125 C59.370642,131.8125 60.6603427,131.279302 61.7267543,130.212891 C62.7931658,129.146479 63.3263636,127.856778 63.3263636,126.34375 C63.3263636,124.830722 62.7931658,123.541021 61.7267543,122.474609 C60.6603427,121.408198 59.370642,120.875 57.8576136,120.875 Z M69.9143182,114.3125 L69.9143182,120.875 L73.1955682,120.875 C74.0979165,120.875 74.8703697,120.553714 75.512951,119.911133 C76.1555323,119.268551 76.4768182,118.496098 76.4768182,117.59375 C76.4768182,116.691402 76.1555323,115.918949 75.512951,115.276367 C74.8703697,114.633786 74.0979165,114.3125 73.1955682,114.3125 L69.9143182,114.3125 Z M69.9143182,123.0625 L69.9143182,131.8125 L74.2893182,131.8125 C75.5015638,131.8125 76.5337801,131.386397 77.3859979,130.53418 C78.2382157,129.681962 78.6643182,128.649746 78.6643182,127.4375 C78.6643182,126.225254 78.2382157,125.193038 77.3859979,124.34082 C76.5337801,123.488603 75.5015638,123.0625 74.2893182,123.0625 L69.9143182,123.0625 Z M68.8205682,112.125 L73.1955682,112.125 C74.7085966,112.125 75.9982972,112.658198 77.0647088,113.724609 C78.1311204,114.791021 78.6643182,116.080722 78.6643182,117.59375 C78.6643182,119.106778 78.1311204,120.396479 77.0647088,121.462891 C77.7391914,121.781903 78.3635341,122.223956 78.9377557,122.789062 C80.2138037,124.074225 80.8518182,125.623689 80.8518182,127.4375 C80.8518182,129.251311 80.2115251,130.798496 78.9309198,132.079102 C77.6503144,133.359707 76.1031293,134 74.2893182,134 L68.8205682,134 C68.5197854,134 68.262301,133.892905 68.0481073,133.678711 C67.8339135,133.464517 67.7268182,133.207033 67.7268182,132.90625 L67.7268182,113.21875 C67.7268182,112.917967 67.8339135,112.660483 68.0481073,112.446289 C68.262301,112.232095 68.5197854,112.125 68.8205682,112.125 Z M97.2835227,132.90625 C97.2835227,133.207033 97.1764275,133.464517 96.9622337,133.678711 C96.7480399,133.892905 96.4905555,134 96.1897727,134 C95.88899,134 95.6315056,133.892905 95.4173118,133.678711 C95.203118,133.464517 95.0960227,133.207033 95.0960227,132.90625 L95.0960227,132.017578 C93.7288284,133.339199 92.0882198,134 90.1741477,134 C88.2145025,134 86.5397146,133.30502 85.1497337,131.915039 C83.7597528,130.525058 83.0647727,128.85027 83.0647727,126.890625 L83.0647727,119.78125 C83.0647727,119.480467 83.171868,119.222983 83.3860618,119.008789 C83.6002556,118.794595 83.85774,118.6875 84.1585227,118.6875 C84.4593055,118.6875 84.7167899,118.794595 84.9309837,119.008789 C85.1451775,119.222983 85.2522727,119.480467 85.2522727,119.78125 L85.2522727,126.890625 C85.2522727,128.248705 85.7330622,129.408524 86.6946555,130.370117 C87.6562489,131.331711 88.816068,131.8125 90.1741477,131.8125 C91.5322274,131.8125 92.6920466,131.331711 93.6536399,130.370117 C94.6152333,129.408524 95.0960227,128.248705 95.0960227,126.890625 L95.0960227,119.78125 C95.0960227,119.480467 95.203118,119.222983 95.4173118,119.008789 C95.6315056,118.794595 95.88899,118.6875 96.1897727,118.6875 C96.4905555,118.6875 96.7480399,118.794595 96.9622337,119.008789 C97.1764275,119.222983 97.2835227,119.480467 97.2835227,119.78125 L97.2835227,132.90625 Z M112.621477,126.34375 C112.621477,124.830722 112.088279,123.541021 111.021868,122.474609 C109.955456,121.408198 108.665756,120.875 107.152727,120.875 C105.639699,120.875 104.349998,121.408198 103.283587,122.474609 C102.217175,123.541021 101.683977,124.830722 101.683977,126.34375 C101.683977,127.856778 102.217175,129.146479 103.283587,130.212891 C104.349998,131.279302 105.639699,131.8125 107.152727,131.8125 C108.665756,131.8125 109.955456,131.279302 111.021868,130.212891 C112.088279,129.146479 112.621477,127.856778 112.621477,126.34375 Z M112.621477,113.191406 C112.621477,112.890623 112.728573,112.633139 112.942766,112.418945 C113.15696,112.204752 113.414445,112.097656 113.715227,112.097656 C114.01601,112.097656 114.273494,112.204752 114.487688,112.418945 C114.701882,112.633139 114.808977,112.890623 114.808977,113.191406 L114.808977,126.34375 C114.808977,128.458344 114.061589,130.263013 112.56679,131.757812 C111.071991,133.252612 109.267321,134 107.152727,134 C105.038133,134 103.233464,133.252612 101.738665,131.757812 C100.243866,130.263013 99.4964773,128.458344 99.4964773,126.34375 C99.4964773,124.229156 100.243866,122.424487 101.738665,120.929688 C103.233464,119.434888 105.038133,118.6875 107.152727,118.6875 C109.267321,118.6875 111.071991,119.434888 112.56679,120.929688 L112.621477,120.984375 L112.621477,113.191406 Z M130.146932,126.34375 C130.146932,124.830722 129.613734,123.541021 128.547322,122.474609 C127.480911,121.408198 126.19121,120.875 124.678182,120.875 C123.165153,120.875 121.875453,121.408198 120.809041,122.474609 C119.74263,123.541021 119.209432,124.830722 119.209432,126.34375 C119.209432,127.856778 119.74263,129.146479 120.809041,130.212891 C121.875453,131.279302 123.165153,131.8125 124.678182,131.8125 C126.19121,131.8125 127.480911,131.279302 128.547322,130.212891 C129.613734,129.146479 130.146932,127.856778 130.146932,126.34375 Z M130.146932,113.191406 C130.146932,112.890623 130.254027,112.633139 130.468221,112.418945 C130.682415,112.204752 130.939899,112.097656 131.240682,112.097656 C131.541465,112.097656 131.798949,112.204752 132.013143,112.418945 C132.227337,112.633139 132.334432,112.890623 132.334432,113.191406 L132.334432,126.34375 C132.334432,128.458344 131.587043,130.263013 130.092244,131.757812 C128.597445,133.252612 126.792776,134 124.678182,134 C122.563588,134 120.758918,133.252612 119.264119,131.757812 C117.76932,130.263013 117.021932,128.458344 117.021932,126.34375 C117.021932,124.229156 117.76932,122.424487 119.264119,120.929688 C120.758918,119.434888 122.563588,118.6875 124.678182,118.6875 C126.792776,118.6875 128.597445,119.434888 130.092244,120.929688 L130.146932,120.984375 L130.146932,113.191406 Z M139.920433,132.892578 L134.670433,120.287109 C134.588402,120.132161 134.547386,119.963543 134.547386,119.78125 C134.547386,119.480467 134.654482,119.222983 134.868675,119.008789 C135.082869,118.794595 135.340354,118.6875 135.641136,118.6875 C135.941919,118.6875 136.201682,118.792317 136.420433,119.001953 C136.538923,119.129558 136.625511,119.266275 136.680199,119.412109 L141.109886,130.035156 L145.539574,119.412109 C145.594262,119.266275 145.685407,119.129558 145.813011,119.001953 C146.022648,118.792317 146.277854,118.6875 146.578636,118.6875 C146.879419,118.6875 147.136904,118.794595 147.351097,119.008789 C147.565291,119.222983 147.672386,119.480467 147.672386,119.78125 C147.672386,119.963543 147.631371,120.132161 147.54934,120.287109 L139.400902,139.837891 C139.346214,139.983725 139.259627,140.115885 139.141136,140.234375 C138.922385,140.453126 138.662622,140.5625 138.36184,140.5625 C138.061057,140.5625 137.803572,140.455405 137.589379,140.241211 C137.375185,140.027017 137.26809,139.769533 137.26809,139.46875 C137.26809,139.286457 137.309105,139.117839 137.391136,138.962891 L139.920433,132.892578 Z M94.8031292,51.609025 C100.402851,56.8092194 103.913101,64.2300389 103.913101,72.4565111 C103.913101,88.1476083 91.1474764,100.913233 75.4563792,100.913233 C59.7655458,100.913233 46.9999208,88.1476083 46.9999208,72.4565111 C46.9999208,64.229775 50.5104347,56.8086917 56.1106847,51.6082333 C57.4076986,50.3711222 58.8192403,49.253025 60.3294764,48.2739972 C60.5762125,48.1140806 60.8316569,47.9921639 61.0907958,47.9013861 C65.3098514,45.4234694 70.2197681,43.9997889 75.4563792,43.9997889 C80.6932542,43.9997889 85.6029069,45.4234694 89.8222264,47.9013861 C90.0813653,47.9919 90.3368097,48.1140806 90.5835458,48.2739972 C92.0943097,49.2532889 93.5061153,50.37165 94.8031292,51.609025 Z M86.3594764,53.8270111 C83.1569208,51.9452194 79.4318653,50.8609 75.4563792,50.8609 C71.4811569,50.8609 67.7563653,51.9452194 64.5540736,53.8267472 C64.3965319,53.97215 64.2297542,54.1088444 64.0442403,54.2244278 C60.2355319,56.5962611 57.2229764,60.1318444 55.5076986,64.3297889 C54.5693097,66.6266778 56.2766708,69.1410111 58.7580181,69.1410111 L59.0018514,69.1410111 C60.4875458,69.1410111 61.8571292,68.2778306 62.4405875,66.9116778 C64.5783514,61.9086083 69.5455319,58.3930806 75.3210042,58.3930806 C75.3666569,58.3930806 75.4112542,58.3962472 75.4566431,58.3965111 C75.5020319,58.3962472 75.5466292,58.3930806 75.5920181,58.3930806 C81.3677542,58.3930806 86.3349347,61.9086083 88.4724347,66.9116778 C89.0561569,68.2778306 90.4257403,69.1410111 91.9114347,69.1410111 L92.1552681,69.1410111 C94.6363514,69.1410111 96.3439764,66.6266778 95.4055875,64.3297889 C93.6903097,60.1318444 90.6777542,56.5962611 86.8690458,54.2244278 C86.6835319,54.1088444 86.5167542,53.97215 86.3594764,53.8270111 Z M81.7857542,72.4565111 C81.7857542,71.6437333 81.1265597,70.9845389 80.3137819,70.9845389 C79.5007403,70.9845389 78.8418097,71.6437333 78.8418097,72.4565111 C78.8418097,73.2695528 79.5007403,73.9284833 80.3137819,73.9284833 C81.1265597,73.9284833 81.7857542,73.2695528 81.7857542,72.4565111 Z M76.7882264,72.4565111 C76.7882264,71.6437333 76.1292958,70.9845389 75.3165181,70.9845389 C74.5034764,70.9845389 73.8445458,71.6437333 73.8445458,72.4565111 C73.8445458,73.2695528 74.5034764,73.9284833 75.3165181,73.9284833 C76.1292958,73.9284833 76.7882264,73.2695528 76.7882264,72.4565111 Z M72.0712125,72.4565111 C72.0712125,71.6437333 71.4122819,70.9845389 70.5992403,70.9845389 C69.7864625,70.9845389 69.1275319,71.6437333 69.1275319,72.4565111 C69.1275319,73.2695528 69.7864625,73.9284833 70.5992403,73.9284833 C71.4122819,73.9284833 72.0712125,73.2695528 72.0712125,72.4565111 Z M64.6857542,91.162275 C67.8587542,92.9963028 71.5355181,94.0521222 75.4563792,94.0521222 C79.3775042,94.0521222 83.0545319,92.9963028 86.2275319,91.1620111 C86.4716292,90.8862472 86.7539903,90.6408306 87.0725042,90.4373722 C90.8648514,88.0164556 93.8473236,84.4346917 95.5127264,80.1953167 C96.3695736,78.014275 94.7867681,75.6516778 92.4436986,75.6516778 L91.8372819,75.6516778 C90.3642542,75.6516778 89.0466569,76.5404556 88.4666292,77.8944694 C86.3093375,82.9292056 81.2843653,86.4513306 75.4566431,86.3961778 C69.6286569,86.4513306 64.6039486,82.9292056 62.4466569,77.8944694 C61.8663653,76.5404556 60.5487681,75.6516778 59.0757403,75.6516778 L58.4695875,75.6516778 C56.1262542,75.6516778 54.5434486,78.014275 55.4002958,80.1953167 C57.0659625,84.4346917 60.0484347,88.0164556 63.8407819,90.4373722 C64.1592958,90.6408306 64.4416569,90.8862472 64.6857542,91.162275 Z" id="Combined-Shape" fill="#505056"></path>
            </g>
        </g>
    </g>
</svg>