<?xml version="1.0" encoding="UTF-8"?>
<svg width="150px" height="150px" viewBox="0 0 150 150" version="1.1" xmlns="http://www.w3.org/2000/svg" xmlns:xlink="http://www.w3.org/1999/xlink">
    <!-- Generator: Sketch 42 (36781) - http://www.bohemiancoding.com/sketch -->
    <title>GetFit</title>
    <desc>Created with Sketch.</desc>
    <defs></defs>
    <g id="Symbols" stroke="none" stroke-width="1" fill="none" fill-rule="evenodd">
        <g id="GetFit">
            <g>
                <rect id="Rectangle-Copy" x="0" y="0" width="150" height="150"></rect>
                <path d="M58.128,68.704 C54.768,68.704 52.08,69.856 50.096,72.224 C48.208,74.432 47.28,77.248 47.28,80.672 C47.28,84.064 48.208,86.848 50.096,88.992 C52.112,91.296 54.928,92.448 58.576,92.448 C60.56,92.448 62.384,92.192 64.048,91.68 C65.616,91.168 66.992,90.464 68.176,89.536 L68.176,79.936 L56.5,80 L56.5,82.912 L64.688,82.912 L64.688,87.872 C63.92,88.352 63.088,88.736 62.128,88.992 C61.136,89.248 60.08,89.408 58.96,89.408 C56.112,89.408 54,88.608 52.656,87.008 C51.376,85.536 50.768,83.424 50.768,80.672 C50.768,77.856 51.44,75.648 52.848,74.048 C54.16,72.512 55.92,71.776 58.128,71.776 C59.92,71.776 61.392,72.16 62.48,72.96 C63.568,73.728 64.272,74.88 64.592,76.416 L68.112,76.416 C67.696,73.856 66.672,71.968 65.04,70.688 C63.344,69.344 61.04,68.704 58.128,68.704 Z M79.1810909,77.792 C77.9010909,77.792 76.9090909,78.144 76.1410909,78.912 C75.4370909,79.648 74.9570909,80.704 74.7650909,82.112 L83.6930909,82.112 C83.3730909,79.232 81.8690909,77.792 79.1810909,77.792 Z M79.0850909,75.008 C81.7730909,75.008 83.8530909,75.904 85.2610909,77.76 C86.5410909,79.424 87.2130909,81.728 87.2450909,84.672 L74.7010909,84.672 C74.8290909,86.272 75.2450909,87.52 76.0130909,88.384 C76.7810909,89.216 77.8370909,89.664 79.1810909,89.664 C80.3650909,89.664 81.3250909,89.376 82.0610909,88.832 C82.6370909,88.384 83.1170909,87.648 83.5650909,86.688 L86.9570909,86.688 C86.5730909,88.224 85.8370909,89.536 84.6850909,90.56 C83.2450909,91.808 81.4210909,92.448 79.2130909,92.448 C76.7810909,92.448 74.8290909,91.68 73.4210909,90.176 C71.8850909,88.576 71.1170909,86.432 71.1170909,83.712 C71.1170909,81.248 71.8210909,79.2 73.2930909,77.536 C74.7010909,75.84 76.6530909,75.008 79.0850909,75.008 Z M95.1781818,70.112 L91.7861818,71.52 L91.7861818,75.456 L88.7141818,75.456 L88.7141818,78.272 L91.7861818,78.272 L91.7861818,87.872 C91.7861818,89.184 92.0741818,90.176 92.7141818,90.88 C93.3541818,91.616 94.4101818,92 95.8181818,92 L98.5381818,92 L98.5381818,89.184 L96.3621818,89.184 C95.9461818,89.184 95.6581818,89.056 95.4661818,88.864 C95.2741818,88.64 95.1781818,88.32 95.1781818,87.872 L95.1781818,78.272 L98.9541818,78.272 L98.9541818,75.456 L95.1781818,75.456 L95.1781818,70.112 Z M102.023273,69.152 L102.023273,92 L105.511273,92 L105.511273,81.76 L116.871273,81.76 L116.871273,78.784 L105.511273,78.784 L105.511273,72.128 L117.543273,72.128 L117.543273,69.152 L102.023273,69.152 Z M122.724364,68.832 C122.052364,68.832 121.508364,69.024 121.060364,69.472 C120.612364,69.888 120.388364,70.432 120.388364,71.104 C120.388364,71.744 120.612364,72.32 121.060364,72.768 C121.508364,73.184 122.052364,73.408 122.724364,73.408 C123.364364,73.408 123.940364,73.184 124.388364,72.768 C124.836364,72.32 125.092364,71.776 125.092364,71.104 C125.092364,70.432 124.868364,69.888 124.420364,69.472 C123.972364,69.024 123.396364,68.832 122.724364,68.832 Z M121.028364,75.456 L121.028364,92 L124.420364,92 L124.420364,75.456 L121.028364,75.456 Z M134.049455,70.112 L134.049455,75.456 L137.825455,75.456 L137.825455,78.272 L134.049455,78.272 L134.049455,87.872 C134.049455,88.32 134.145455,88.64 134.337455,88.864 C134.529455,89.056 134.817455,89.184 135.233455,89.184 L137.409455,89.184 L137.409455,92 L134.689455,92 C133.281455,92 132.225455,91.616 131.585455,90.88 C130.945455,90.176 130.657455,89.184 130.657455,87.872 L130.657455,78.272 L127.585455,78.272 L127.585455,75.456 L130.657455,75.456 L130.657455,71.52 L134.049455,70.112 Z M34,80 L44,80 L44,83 L34,83 L34,80 Z M32,67.0022853 L32,95.9977147 C32,97.1002151 31.102384,98 29.9951185,98 L29.0048815,98 C27.8938998,98 27,97.1035463 27,95.9977147 L27,67.0022853 C27,65.8997849 27.897616,65 29.0048815,65 L29.9951185,65 C31.1061002,65 32,65.8964537 32,67.0022853 Z M25,72.991155 L25,91.008845 C25,92.1103261 24.102384,93 22.9951185,93 L22.0048815,93 C20.8938998,93 20,92.1085295 20,91.008845 L20,72.991155 C20,71.8896739 20.897616,71 22.0048815,71 L22.9951185,71 C24.1061002,71 25,71.8914705 25,72.991155 Z M18,77.0058587 L18,86.9941413 C18,88.1029399 17.102384,89 15.9951185,89 L15.0048815,89 C13.8938998,89 13,88.1019465 13,86.9941413 L13,77.0058587 C13,75.8970601 13.897616,75 15.0048815,75 L15.9951185,75 C17.1061002,75 18,75.8980535 18,77.0058587 Z" id="Combined-Shape" fill="#505056"></path>
            </g>
        </g>
    </g>
</svg>