<?xml version="1.0" encoding="UTF-8" standalone="no"?>
<svg width="150px" height="150px" viewBox="0 0 150 150" version="1.1" xmlns="http://www.w3.org/2000/svg" xmlns:xlink="http://www.w3.org/1999/xlink">
    <!-- Generator: Sketch 42 (36781) - http://www.bohemiancoding.com/sketch -->
    <title>home tap</title>
    <desc>Created with Sketch.</desc>
    <defs></defs>
    <g id="Symbols" stroke="none" stroke-width="1" fill="none" fill-rule="evenodd">
        <g id="home-tap">
            <rect id="Rectangle-3" x="0" y="0" width="150" height="150"></rect>
            <path d="M22.728,119.864 L22.728,137 L24.696,137 L24.696,129.008 L34.608,129.008 L34.608,137 L36.576,137 L36.576,119.864 L34.608,119.864 L34.608,127.304 L24.696,127.304 L24.696,119.864 L22.728,119.864 Z M45.3338182,124.256 C47.1818182,124.256 48.6698182,124.88 49.7738182,126.176 C50.8298182,127.4 51.3578182,128.936 51.3578182,130.808 C51.3578182,132.656 50.8298182,134.192 49.7978182,135.392 C48.6698182,136.688 47.1818182,137.336 45.3338182,137.336 C43.4618182,137.336 41.9978182,136.688 40.8938182,135.392 C39.8378182,134.192 39.3098182,132.656 39.3098182,130.808 C39.3098182,128.936 39.8378182,127.4 40.8938182,126.176 C41.9978182,124.88 43.4618182,124.256 45.3338182,124.256 Z M45.3338182,125.864 C44.0138182,125.864 42.9818182,126.368 42.2618182,127.376 C41.5898182,128.288 41.2778182,129.416 41.2778182,130.808 C41.2778182,132.176 41.5898182,133.304 42.2618182,134.216 C42.9818182,135.224 44.0138182,135.728 45.3338182,135.728 C46.6298182,135.728 47.6618182,135.224 48.4298182,134.216 C49.0778182,133.304 49.4138182,132.152 49.4138182,130.808 C49.4138182,129.416 49.0778182,128.288 48.4298182,127.376 C47.6618182,126.368 46.6298182,125.864 45.3338182,125.864 Z M59.2996364,124.256 C57.9076364,124.256 56.7316364,124.904 55.7956364,126.248 L55.7956364,124.592 L53.8756364,124.592 L53.8756364,137 L55.7956364,137 L55.7956364,129.44 C55.7956364,128.456 56.0836364,127.616 56.6596364,126.944 C57.2356364,126.224 57.9556364,125.888 58.8436364,125.888 C60.7396364,125.888 61.6996364,126.968 61.6996364,129.176 L61.6996364,137 L63.6196364,137 L63.6196364,129.224 C63.6196364,128.216 63.8836364,127.424 64.4596364,126.8 C64.9876364,126.176 65.6836364,125.888 66.4996364,125.888 C67.5556364,125.888 68.3236364,126.152 68.8036364,126.728 C69.2596364,127.256 69.4996364,128.072 69.4996364,129.176 L69.4996364,137 L71.4196364,137 L71.4196364,128.864 C71.4196364,127.448 71.0116364,126.32 70.2436364,125.48 C69.4276364,124.664 68.3956364,124.256 67.0996364,124.256 C66.2356364,124.256 65.5156364,124.448 64.9156364,124.832 C64.2436364,125.192 63.6676364,125.792 63.1876364,126.608 C62.4916364,125.024 61.1956364,124.256 59.2996364,124.256 Z M79.5294546,124.256 C81.5214546,124.256 83.0334546,124.928 84.0414546,126.272 C84.9534546,127.472 85.4334546,129.176 85.4814546,131.336 L75.6894546,131.336 C75.7854546,132.728 76.1454546,133.808 76.8174546,134.576 C77.4894546,135.344 78.4254546,135.728 79.6014546,135.728 C80.6094546,135.728 81.4494546,135.464 82.0734546,134.96 C82.6014546,134.528 83.0094546,133.88 83.3214546,133.016 L85.2414546,133.016 C84.9534546,134.216 84.4014546,135.176 83.5614546,135.944 C82.5294546,136.856 81.2094546,137.336 79.6014546,137.336 C77.8254546,137.336 76.3854546,136.736 75.3294546,135.584 C74.2254546,134.384 73.6974546,132.8 73.6974546,130.784 C73.6974546,128.96 74.2014546,127.424 75.2574546,126.2 C76.3134546,124.904 77.7294546,124.256 79.5294546,124.256 Z M79.5774546,125.864 C78.4734546,125.864 77.5854546,126.224 76.9134546,126.944 C76.2414546,127.664 75.8574546,128.624 75.7374546,129.848 L83.4894546,129.848 C83.2494546,127.184 81.9294546,125.864 79.5774546,125.864 Z M86.6792727,119.864 L86.6792727,121.568 L92.7272727,121.568 L92.7272727,137 L94.6712727,137 L94.6712727,121.568 L100.719273,121.568 L100.719273,119.864 L86.6792727,119.864 Z M108.037091,124.256 C109.813091,124.256 111.109091,124.712 111.973091,125.648 C112.693091,126.464 113.077091,127.592 113.077091,129.032 L113.077091,137 L111.277091,137 L111.277091,134.912 C110.797091,135.584 110.149091,136.136 109.381091,136.568 C108.469091,137.072 107.437091,137.336 106.285091,137.336 C105.037091,137.336 104.053091,137.024 103.309091,136.4 C102.541091,135.752 102.157091,134.912 102.157091,133.904 C102.157091,132.488 102.709091,131.432 103.861091,130.712 C104.869091,130.04 106.309091,129.68 108.181091,129.656 L111.157091,129.608 L111.157091,128.96 C111.157091,126.872 110.077091,125.84 107.917091,125.84 C107.005091,125.84 106.261091,126.008 105.685091,126.392 C105.037091,126.776 104.629091,127.376 104.437091,128.168 L102.541091,128.024 C102.805091,126.728 103.453091,125.744 104.461091,125.12 C105.373091,124.544 106.549091,124.256 108.037091,124.256 Z M111.157091,131.048 L108.301091,131.096 C105.517091,131.144 104.125091,132.056 104.125091,133.856 C104.125091,134.432 104.341091,134.888 104.821091,135.272 C105.301091,135.632 105.925091,135.824 106.693091,135.824 C107.869091,135.824 108.901091,135.44 109.813091,134.672 C110.701091,133.928 111.157091,133.064 111.157091,132.104 L111.157091,131.048 Z M122.002909,124.256 C123.778909,124.256 125.194909,124.904 126.226909,126.248 C127.162909,127.448 127.642909,128.96 127.642909,130.832 C127.642909,132.656 127.162909,134.168 126.250909,135.368 C125.242909,136.664 123.874909,137.336 122.098909,137.336 C120.322909,137.336 118.954909,136.472 117.994909,134.744 L117.994909,141.752 L116.074909,141.752 L116.074909,124.592 L117.874909,124.592 L117.874909,126.632 C118.762909,125.048 120.130909,124.256 122.002909,124.256 Z M121.762909,125.84 C120.514909,125.84 119.530909,126.32 118.858909,127.304 C118.234909,128.168 117.922909,129.32 117.922909,130.712 L117.922909,130.952 C117.922909,132.392 118.258909,133.544 118.978909,134.432 C119.650909,135.296 120.538909,135.752 121.690909,135.752 C123.034909,135.752 124.042909,135.272 124.738909,134.36 C125.362909,133.496 125.674909,132.32 125.674909,130.832 C125.674909,129.368 125.362909,128.192 124.786909,127.328 C124.090909,126.32 123.082909,125.84 121.762909,125.84 Z M99,101 L99,79 L87,79 L87,87 L84,87 L84,76 L99,76 L99,51 L81,51 L81,56 L78,56 L78,48 L102,48 L102,104 L68,104 L68,101 L75,101 L75,92 L78,92 L78,101 L99,101 Z M68,48 L68,68 L65,68 L65,51 L51,51 L51,101 L61,101 L61,104 L48,104 L48,48 L68,48 Z M75,76 L75,70 L78,70 L78,79 L51,79 L51,76 L75,76 Z M78,65 L78,62 L90,62 L90,65 L78,65 Z" id="Combined-Shape" fill="#505056"></path>
        </g>
    </g>
</svg>