<?xml version="1.0" encoding="UTF-8"?>
<svg width="150px" height="150px" viewBox="0 0 150 150" version="1.1" xmlns="http://www.w3.org/2000/svg" xmlns:xlink="http://www.w3.org/1999/xlink">
    <!-- Generator: Sketch 42 (36781) - http://www.bohemiancoding.com/sketch -->
    <title>Lingo</title>
    <desc>Created with Sketch.</desc>
    <defs></defs>
    <g id="Symbols" stroke="none" stroke-width="1" fill="none" fill-rule="evenodd">
        <g id="Lingo">
            <g>
                <rect id="Rectangle-Copy" x="0" y="0" width="150" height="150"></rect>
                <path d="M53.8945312,133.101562 L45.7382812,133.101562 L45.7382812,118.089844 L43.6289062,118.089844 L43.6289062,135 L53.8945312,135 L53.8945312,133.101562 Z M56.4475994,135 L58.4866619,135 L58.4866619,122.367188 L56.4475994,122.367188 L56.4475994,135 Z M57.4671307,120.328125 C57.8265075,120.328125 58.1311919,120.201173 58.3811932,119.947266 C58.6311944,119.693358 58.7561932,119.390627 58.7561932,119.039062 C58.7561932,118.679686 58.6311944,118.375001 58.3811932,118.125 C58.1311919,117.874999 57.8265075,117.75 57.4671307,117.75 C57.1155664,117.75 56.8128351,117.874999 56.5589276,118.125 C56.30502,118.375001 56.1780682,118.679686 56.1780682,119.039062 C56.1780682,119.390627 56.30502,119.693358 56.5589276,119.947266 C56.8128351,120.201173 57.1155664,120.328125 57.4671307,120.328125 Z M61.7428551,135 L63.7819176,135 L63.7819176,127.664062 C63.7819176,126.57812 64.0768365,125.707035 64.6666832,125.050781 C65.2565299,124.394528 66.0709749,124.066406 67.1100426,124.066406 C68.1100476,124.066406 68.8522277,124.339841 69.3366051,124.886719 C69.8209825,125.433596 70.0631676,126.222651 70.0631676,127.253906 L70.0631676,135 L72.1022301,135 L72.1022301,126.902344 C72.1022301,125.464837 71.7194214,124.330082 70.9537926,123.498047 C70.1881638,122.666011 69.1100496,122.25 67.7194176,122.25 C66.7428502,122.25 65.9303584,122.431639 65.2819176,122.794922 C64.6334769,123.158205 64.1100446,123.699215 63.7116051,124.417969 L63.6647301,124.417969 L63.6647301,122.367188 L61.7428551,122.367188 L61.7428551,135 Z M80.2920171,133.183594 C81.4013976,133.183594 82.297873,132.763676 82.9814702,131.923828 C83.6650673,131.08398 84.0068608,129.988288 84.0068608,128.636719 C84.0068608,127.277337 83.6650673,126.175785 82.9814702,125.332031 C82.297873,124.488277 81.4013976,124.066406 80.2920171,124.066406 C79.190449,124.066406 78.3076454,124.482418 77.6435796,125.314453 C76.9795137,126.146489 76.6474858,127.253899 76.6474858,128.636719 C76.6474858,130.011726 76.9795137,131.113277 77.6435796,131.941406 C78.3076454,132.769535 79.190449,133.183594 80.2920171,133.183594 Z M80.3623296,139.757812 C78.9951352,139.757812 77.8154595,139.408207 76.8232671,138.708984 C75.8310746,138.009762 75.2451429,137.125005 75.0654546,136.054688 L77.1748296,136.054688 C77.3779556,136.640628 77.7763891,137.111326 78.3701421,137.466797 C78.963895,137.822267 79.6592006,138 80.4560796,138 C81.5576476,138 82.4248264,137.707034 83.0576421,137.121094 C83.6904577,136.535153 84.0068608,135.76563 84.0068608,134.8125 L84.0068608,132.832031 L83.9599858,132.832031 C83.5615463,133.519535 83.0068644,134.052732 82.2959233,134.431641 C81.5849822,134.810549 80.7881152,135 79.9052983,135 C78.3037278,135 77.0127251,134.416021 76.0322514,133.248047 C75.0517778,132.080072 74.5615483,130.542978 74.5615483,128.636719 C74.5615483,126.707022 75.0537309,125.160162 76.0381108,123.996094 C77.0224907,122.832025 78.3271652,122.25 79.9521733,122.25 C80.8428028,122.25 81.6455291,122.437498 82.3603764,122.8125 C83.0752237,123.187502 83.6435774,123.722653 84.0654546,124.417969 L84.1006108,124.417969 L84.1006108,122.367188 L86.0459233,122.367188 L86.0459233,134.742188 C86.0459233,136.250008 85.5322566,137.462886 84.5049077,138.380859 C83.4775588,139.298833 82.0967132,139.757812 80.3623296,139.757812 Z M94.388054,135.117188 C92.6146076,135.117188 91.2005593,134.533209 90.1458665,133.365234 C89.0911737,132.19726 88.5638352,130.636729 88.5638352,128.683594 C88.5638352,126.722646 89.0911737,125.160162 90.1458665,123.996094 C91.2005593,122.832025 92.6146076,122.25 94.388054,122.25 C96.1615004,122.25 97.5755487,122.832025 98.6302415,123.996094 C99.6849343,125.160162 100.212273,126.722646 100.212273,128.683594 C100.212273,130.636729 99.6849343,132.19726 98.6302415,133.365234 C97.5755487,134.533209 96.1615004,135.117188 94.388054,135.117188 Z M94.388054,133.300781 C95.5677474,133.300781 96.4876601,132.892582 97.1478196,132.076172 C97.8079792,131.259762 98.138054,130.128913 98.138054,128.683594 C98.138054,127.230461 97.8079792,126.09766 97.1478196,125.285156 C96.4876601,124.472652 95.5677474,124.066406 94.388054,124.066406 C93.2083606,124.066406 92.2884479,124.474605 91.6282884,125.291016 C90.9681288,126.107426 90.638054,127.238274 90.638054,128.683594 C90.638054,130.128913 90.9700819,131.259762 91.6341477,132.076172 C92.2982136,132.892582 93.2161731,133.300781 94.388054,133.300781 Z M56.2539636,35 C56.9584204,35 57.6629355,35.2695527 58.2014248,35.808775 C59.2783448,36.8870441 59.2783448,38.6324708 58.2014248,39.7079333 C53.2409701,44.6747191 50.5087548,51.2795197 50.5087548,58.3061341 C50.5087548,65.3301739 53.2409701,71.9349161 58.2014248,76.9015849 C63.1618794,81.8682537 69.7611026,84.6038918 76.7762958,84.6038918 C83.7913675,84.6038918 90.3907075,81.8682537 95.3511622,76.9015849 C96.4280823,75.8233157 98.1688724,75.8233157 99.2457924,76.9015849 C100.322712,77.9771059 100.322712,79.7226495 99.2457924,80.8009187 C93.8957054,86.1552522 86.9793803,89.3638061 79.5305809,89.9999738 L79.5305809,93.9195953 L84.8076119,93.9195953 C86.3306937,93.9195953 87.5619017,95.1550938 87.5619017,96.6773355 C87.5619017,98.1996357 86.3306937,99.4350757 84.8076119,99.4350757 L68.7447414,99.4350757 C67.2216596,99.4350757 65.99051,98.1996357 65.99051,96.6773355 C65.99051,95.1550938 67.2216596,93.9195953 68.7447414,93.9195953 L74.022006,93.9195953 L74.022006,89.9999738 C66.5726811,89.3638061 59.6544872,86.1552522 54.3067945,80.8009187 C48.3024147,74.7918821 45,66.8027735 45,58.3061341 C45,49.8068617 48.3024147,41.8178116 54.3067945,35.808775 C54.8452253,35.2695527 55.5495653,35 56.2539636,35 Z M76.7762958,35.3536344 L76.7762958,35.3536344 C89.4184369,35.3536344 99.6974436,45.6483246 99.6974436,58.3035029 C99.6974436,70.9588547 89.4184369,81.2532526 76.7762958,81.2532526 C64.1396978,81.2532526 53.8605159,70.9588547 53.8605159,58.3035029 C53.8605159,45.6483246 64.1396978,35.3536344 76.7762958,35.3536344 Z M76.7762958,40.8691148 L76.7762958,40.8691148 C67.1747659,40.8691148 59.3690955,48.6901184 59.3690955,58.3035029 C59.3690955,67.917061 67.1747659,75.7378892 76.7762958,75.7378892 C86.3777043,75.7378892 94.188864,67.917061 94.188864,58.3035029 C94.188864,48.6901184 86.3777043,40.8691148 76.7762958,40.8691148 Z" id="Combined-Shape" fill="#505056"></path>
            </g>
        </g>
    </g>
</svg>